<svg xmlns="http://www.w3.org/2000/svg" width="244" height="80" fill="none"><g clip-path="url(#a)"><path fill="#fff" d="M83.97 37.18c.32.106.578.106.694.098.364 0 .675-.098.933-.24.063.017.125.026.196.035.604.098 1.084.151 1.493.151 3.218 0 4.116-.391 4.65-1.12l.142-.205c.053-.08.115-.178.178-.25l.15-.178c.196-.23.41-.48.596-.747.107-.098.205-.195.285-.311l.142-.205c.053-.08.116-.178.187-.249l.15-.178c.436-.498.88-1.023 1.032-1.637.027-.098.044-.222.062-.427.383-.445.738-.916.88-1.468.027-.098.09-.347.09-1.067a2.2 2.2 0 0 0 .195-.516c.009-.036.55-3.8-.916-4.805-.293-.195-.711-.276-1.129-.231a7.83 7.83 0 0 0-6.551-3.568c-2.054 0-3.93.801-5.325 2.1.418-1.477 2.587-9.493 1.689-10.863-.303-.463-.907-.783-1.45-.783-.382 0-1.404 0-5.27 5.009-.347-2.206-1.467-3.212-2.579-3.399-.053 0-.106-.018-.16-.018q.016-.187.018-.373c.089-.685-.267-1.46-.88-1.77a1.5 1.5 0 0 0-.507-.143 1.63 1.63 0 0 0-.657-.685c.222-.258.4-.516.515-.73.365-.667.427-1.387.196-2.02-.694-1.859-2.792-1.28-3.476-1.093l-.205.053c-.213.053-.444.125-.693.151-.231.027-.436 0-.711-.009-.711-.044-2.187-.142-3.245.961q-.267.282-.426.632a2.2 2.2 0 0 0-.294-.89C62.965 4.466 61 5.4 60.351 5.712l-.169.08c-.204.089-.427.204-.667.276-.222.062-.426.08-.702.115-.711.08-2.187.232-3.031 1.504a2.4 2.4 0 0 0-.338 1.86c.16.702.64 1.787 2.934 3.407a6 6 0 0 0-.205.845c-1.547 1.797-2.391 4.03-2.391 6.326q0 .707.133 1.414a171 171 0 0 0-3.493-2.02c-8.428-4.688-8.641-4.626-9.53-4.341a1.8 1.8 0 0 0-1.005.89c-.32.676-.088 1.45-.008 1.672.31.863 2.15 3.337 4.178 5.819l.017.017a90 90 0 0 0 3.014 3.506c-4.72-.125-5.583-.134-6.196.925-.311.516-.302 1.29 0 1.797.284.472 2.24 1.958 4.383 3.346.017.008.026.026.044.035l.044.027c2.205 1.423 4.579 2.731 5.539 2.731.195 0 .506-.053.684-.124.08-.027.373-.16.765-.348 0 .018 0 .036.008.045.223.96.952 1.797 1.61 2.384.08.677.337 1.308.737 1.806a1.77 1.77 0 0 0 .703 1.682c.062.044.15.125.248.222l-.16.134c-.72.596-1.35 1.165-1.715 1.752H41.879c.346-.302.613-.694.773-1.147q.32-.908.533-1.842a20 20 0 0 0 .303-1.601c.169-1.22.204-2.465.106-3.701a17 17 0 0 0-.329-2.278 17 17 0 0 0-.622-2.162 14 14 0 0 0-.738-1.7A16 16 0 0 0 40.11 26.3a20 20 0 0 0-1.04-1.183 20.5 20.5 0 0 0-2-1.94 20 20 0 0 0-1.556-1.2 28 28 0 0 0-1.387-.917 30 30 0 0 0-1.645-.934 23 23 0 0 0-2.133-.988 27 27 0 0 0-2.711-.943l-.178-.053a2.65 2.65 0 0 0-3.005 1.174 2.645 2.645 0 0 0 .32 3.212l.08.089c-.16.026-.311.044-.471.07a17 17 0 0 0-2.302.544c-.765.24-1.52.542-2.24.89a16.35 16.35 0 0 0-5.325 4.163l-.223-.24a2.74 2.74 0 0 0-2.338-.845 2.7 2.7 0 0 0-2.035 1.414L4.134 39.448a2.685 2.685 0 0 0 .4 3.079l.453.489.044.044a35 35 0 0 0-.257 1.442 28 28 0 0 0-.258 2.25c-.036.472-.053.953-.062 1.433 0 .356 0 .72.017 1.068a16.6 16.6 0 0 0 .525 3.496c.071.258.151.507.231.765a13 13 0 0 0 .587 1.432c.258.534.55 1.06.88 1.549.329.507.693.987 1.075 1.45.258.311.525.605.756.836.169.187.338.374.507.543a18.6 18.6 0 0 0 3.831 3.007 19.7 19.7 0 0 0 3.271 1.557h-5.369a1.8 1.8 0 0 0-1.707 1.228c-.24.72 0 1.512.578 1.984l-1.075 1.388c-.623.8-.925 1.165-1.032 1.245l-2.338 1.62a1.79 1.79 0 0 0-.693 2.028c.24.756.925 1.263 1.725 1.263h13.663c.515 0 1.004-.222 1.351-.605.027-.026.036-.08.062-.115.631.364 1.503.693 2.676.72h.711a9 9 0 0 0 .56-.018h.036c.053 0 .098.027.151.027h13.219c.515 0 1.013-.222 1.35-.614.303-.347.49-.96.436-1.415l-.088-.729c.15-.338.408-.916.693-1.495.142-.293.427-.907.631-1.343.116.41.311.792.614 1.12l.453.49c.542.587 1.191.881 1.911.881.276 0 .56-.044.862-.133l11.681-3.541a2.66 2.66 0 0 0 1.911-2.5v-.187c.49-.16.978-.312 1.476-.463a65 65 0 0 1 1.876-.525c1.52-.391 2.88-.667 4.16-.827a31 31 0 0 1 1.574-.16 22 22 0 0 1 1.52-.054c.329 0 .658 0 .986.01.4.017.8.035 1.21.07.31.027.622.054.924.09.276.035.551.07.827.115.444.071.88.17 1.306.285a9 9 0 0 1 1.05.364 8.6 8.6 0 0 1 1.111.588c.266.16.524.338.782.507.329.213.658.436.987.64.222.134.444.258.666.383.471.258.96.48 1.458.676.987.383 2.027.632 3.103.765.71.09 1.422.116 2.124.08a10 10 0 0 0 1.556-.186 8.4 8.4 0 0 0 2.631-.988c.231-.133.454-.294.676-.454a8 8 0 0 0 1.013-.916c.33-.347.623-.73.898-1.121a11.8 11.8 0 0 0 1.254-2.384c.168-.436.302-.872.417-1.335.107-.472.178-.943.214-1.424a8.5 8.5 0 0 0-.018-1.423 7.4 7.4 0 0 0-.187-1.094c.471-.365.81-.881.96-1.477l.045-.187c.204-.836.329-1.69.355-2.544q.027-.855-.053-1.709a10.6 10.6 0 0 0-.382-1.93 9 9 0 0 0-.623-1.54 10.3 10.3 0 0 0-1.43-2.09c-.152-.17-.303-.338-.463-.498a12 12 0 0 0-2.018-1.824 15 15 0 0 0-2.533-1.441 14 14 0 0 0-1.583-.588c-.124-.035-.213-.07-.338-.098-.088-.026-.213-.044-.302-.07-1.111-.241-2.258.222-2.844 1.218a13 13 0 0 0-1.467-.774A16 16 0 0 0 79.552 40c-1.19-.311-2.382-.454-3.573-.516.115-.25.24-.498.32-.747a6.7 6.7 0 0 0 .018-4.28c1.378.801 3.058 1.513 4.729 1.744.764.89 1.902 1.255 2.969.943zm-73.694.026h-.098l.107-.204v.204zm35.212 15.508c.115.089.24.169.364.24l-.729 3.327c-.142 0-.284.018-.426.045zm-18.233.097c-.355.997-1.217 1.718-2.204 1.878-3.174.373-6.32-.676-8.579-2.83-1.715-1.797-2.898-4.27-3.324-6.841a2.7 2.7 0 0 0 1.12-.872q.253.28.533.534a11.5 11.5 0 0 0 2.596 2.064c.693.4 1.413.765 2.124 1.076a19 19 0 0 0 1.387.543l1.254.41s.186.053.195.053l.951.284c.392.125.774.267 1.147.41.427.169.854.346 1.262.551.187.098.374.187.57.294.177.098.355.195.462.267l.097.07c.463.597.623 1.371.427 2.11zM27.7 36.05a14 14 0 0 1-1.511-.72 8 8 0 0 1-.73-.463 11 11 0 0 1-.355-.276c-.035-.062-.08-.134-.133-.285-.027-.08-.036-.169-.045-.25a1.8 1.8 0 0 1 .045-.657 2 2 0 0 1 .098-.294.6.6 0 0 1 .097-.16 1.6 1.6 0 0 1 .4-.365c.178-.116.4-.222.65-.311.195-.072.4-.125.604-.178q.213-.053.453-.08c.249-.036.498-.054.747-.063.498-.026 1.004.036 1.511.134a8.2 8.2 0 0 1 1.609.516c.391.169.773.373 1.138.596.436.267.871.578 1.28.925.267.231.533.472.72.659a10.9 10.9 0 0 1 1.956 3.185c.177.462.329.943.435 1.405.072.32.134.65.17.988l.026.276c-.445-.374-.925-.73-1.458-1.077a20 20 0 0 0-2.08-1.2 28 28 0 0 0-1.956-.89 77 77 0 0 0-1.991-.766c-.56-.213-1.13-.427-1.69-.658zm16.25 28.879a1.78 1.78 0 0 0-1.61-1.023H30.919c1.138-.419 2.204-.926 3.156-1.54.035-.017.062-.044.097-.062.445.347.97.516 1.565.516h7.494c.382 0 .747-.089 1.067-.249.346.16.72.25 1.129.25h.808l-2.302 2.108zm6.738-.231h-.08l.178-.17c0 .045.018.09.027.134zm.587-16.753v-.116h.026zM63.08 10.552a4 4 0 0 0-.453-.107c.63-.64 1.164-1.46 1.413-2.055.045.436.205 1.005.711 1.788-.569.08-1.12.205-1.67.374m9.77 19.84.08-.107v.107h-.09zm1.253 20.382a1 1 0 0 1 .098-.142c.062-.09.133-.178.204-.258.072-.08.143-.152.196-.214.071-.062.142-.124.213-.178.054-.035.107-.071.16-.098a.7.7 0 0 1 .196-.062h.062c.062.125.125.25.169.392s.089.284.116.427l.026.142h-1.43zm11.619-1.04.133.168-.035.062-.134-.222s.027-.009.045-.018zm-.765 9.723.08.018-.07.045h-.01zm-2.284-.534 1.733.641a3 3 0 0 1-.4-.035 3.6 3.6 0 0 1-.649-.16 3 3 0 0 1-.355-.16 7 7 0 0 1-.507-.286l-.347-.213c.178.071.356.133.534.205z"/><path fill="#C7E8FA" d="M75.694 22.571s.774.925.596 2.073c-.009.08-.036.17-.053.25 1.226-.873 3.138-2.207 3.636-2.394.026-.009.15-.107.382-.845.773-2.376 1.831-8.14 1.627-8.452-.098-.053-.783.703-2.739 2.971-1.306 1.522-2.622 3.185-3.404 4.306-.107.641-.33 1.397-.525 1.718.205.097.374.222.49.373z"/><path fill="#fff" d="M68.227 18.852c-.809-1.156-1.564-2.25-2.213-2.713-1.165-.828-2.258-.934-3.147-.32-1.29.89-1.92 3.229-1.414 5.222.791 3.07 2.196 4.217 2.24 4.261.267 0 .543 0 .827-.026 1.698-.107 3.103-1.068 4.596-2.02.196-.124.382-.249.587-.373.32-.196.684-.374 1.084-.517.027-.053.063-.097.098-.15a1 1 0 0 1 .133-.143c-.87-.463-1.849-1.86-2.8-3.22zm-2.293 5.587c-1.138 0-1.6-1.352-1.6-2.758s.764-2.553 1.475-2.553 1.423 1.352 1.423 2.758-.587 2.553-1.298 2.553"/><path fill="#3B82C5" d="M65.818 19.235c-.658 0-1.2 1.103-1.2 2.447 0 1.343.533 2.446 1.2 2.446s1.2-1.103 1.2-2.447c0-1.343-.533-2.446-1.2-2.446m.391 2.918s.49.089.49.196c0 .712-.57 1.112-.854 1.112-.427 0-.845-.854-.845-1.673 0-.818.418-1.468.845-1.468s.88.739.88 1.557c0 .063-.498.258-.516.276"/><path fill="#231815" d="M65.845 20.418c-.356 0-.658.623-.658 1.361 0 .739.302 1.362.658 1.362.24 0 .453-.276.569-.712 0-.027-.062-.062-.116-.09-.089-.044-.204-.106-.195-.213 0-.062.08-.115.213-.213.062-.045.169-.116.178-.151 0-.739-.302-1.362-.658-1.362z"/><path fill="#3F2C23" d="M71.152 22.224c-.196.258-.267.534-.187.783.17.507.934.712 1.698.463.373-.125.693-.338.898-.605.195-.258.267-.534.187-.783-.125-.365-.534-.507-1.04-.507-.205 0-.427.035-.658.107-.374.124-.694.284-.898.551zm1.404-.525a.95.95 0 0 1 .516-.035c.16.035.364.186.409.311s-.116.383-.222.507a.96.96 0 0 1-.436.285 1.2 1.2 0 0 1-.338.053c-.24 0-.524-.16-.586-.329-.08-.249.275-.658.657-.792"/><path fill="#FDD000" d="M60.991 25.525c.373-.418 1.405-.231 2.338-.223h.196c-.41-.31-1.832-1.556-2.516-4.234-.525-2.029.311-4.742 1.627-5.659.649-.445 2.124-.605 3.653.472.667.471 1.343 1.744 2.151 2.918 1.067 1.54 2.08 2.883 2.97 3.007.204-.116.417-.222.613-.285.053-.017.107-.035.16-.044.471-.72.436-2.491.427-3.772 0-.516-.062-1.166-.036-1.406.045-.454.347-.96.756-1.023.382-.062 1.138.053 1.44.765.284.445.516.916.684 1.406.072-2.109-.577-3.007-1.297-3.123-.8-.134-1.903.676-2.17 2.135 0 .027-.044.036-.044.009.133-.739.507-1.53.978-2.073-.4-.391-.631-.632-1.174-.96-.24.07-.533.026-.533.026s.24-.036.542-.16c.027-.018.045-.036.054-.036 0 0 .578-.632.498-1.139-.392.303-1.156.392-1.494.418-.347.196-.889.25-.889.232 0-.027.391-.098.685-.294.026-.035.062-.062.106-.098.205-.169.507-.427.391-1.112-.586.56-1.653.872-2.133.925 0 .018 0 .027-.018.036a.1.1 0 0 1-.035.018c-.01 0-.027 0-.036-.018-.009 0-.018-.018-.027-.027h-.097a9.3 9.3 0 0 0-2.107-.24 9.2 9.2 0 0 0-3.112.534c2.445 1.228 4.898 4.36 4.88 4.377-.026.018-4.826-5.453-7.386-4.146-2.098 1.077-.8 6.522-.836 6.53h-.009c-.018 0-.56-2.117-.533-4.056-1.12 1.37-1.796 3.078-1.796 4.929 0 2.357 1.022 4.252 2.907 5.765.062-.134.133-.25.222-.347z"/><path fill="#3B82C5" d="M72.512 21.183c.027.08.062.16.107.232.302-.018.586.035.817.142.196-.25.33-.694.33-1.201 0-.774-.312-1.406-.685-1.406-.125 0-.24.071-.338.187 0 .267-.018.534-.035.792.088-.214.24-.356.39-.356.25 0 .507.418.507.898 0 .036-.284.143-.293.16 0 .018.276.054.276.116 0 .41-.33.64-.49.64-.204 0-.408-.346-.47-.729a4 4 0 0 1-.107.534z"/><path fill="#C7E8FA" d="M59.987 28.55c.142-.507.569-.943 1.03-1.139-.195-.303-.32-.614-.346-.863a2 2 0 0 1 0-.311c-.053-.045-.115-.09-.169-.143-2.533-1.254-5.938-3.15-8.952-4.822-3.484-1.94-7.093-3.941-7.36-3.799 0 0-.009.054.035.178.57 1.61 7.583 9.93 8.517 10.374 1.289.614 6.187.925 7.182.979 0-.16.018-.32.054-.463zm.115 1.441a3 3 0 0 1-.169-.88c-.178 0-.489-.018-.87-.045-2.188.098-5.006.044-7.522 0-2.977-.062-6.062-.116-6.231.178v.026c.204.338 1.796 1.513 3.636 2.67 2.027 1.28 3.547 2.037 3.858 1.912a185 185 0 0 0 4.302-1.681c.863-.881 2.018-1.628 2.996-2.18"/><path fill="#fff" d="M74.672 16.593s-.027-.018-.035-.027c-.285-.65-.872-.819-1.218-.765-.374.053-.623.347-.667.756-.027.231-.027.658-.018 1.157v1.325a.54.54 0 0 1 .338-.142c.409 0 .818.774.818 1.583 0 .48-.116.899-.302 1.166a1 1 0 0 1 .249.249c.48.027.915.107 1.262.25.16-.57.418-1.362.418-2.038a7.66 7.66 0 0 0-.836-3.479v-.044z"/><path fill="#3F2C23" d="M69.41 11.886c-.516-.551-1.778-1.957-1.672-2.589.01-.071.063-.062.116-.089-.356-.267-.756-.88-.73-.89.028-.017.623.588.899.73.026.018.186.053.178.08.16.062.417.17.897.062.658-.15 1.512-.791 1.823-1.379.124-.23.16-.436.097-.605-.15-.418-.55-.338-1.226-.16-.285.071-.605.16-.942.205-.347.044-.667.018-.943 0-.595-.036-1.067-.071-1.591.48-.738.783.853 2.563 2.578 4.333a3.6 3.6 0 0 0 .533-.187z"/><path fill="#FDD000" d="M59.409 37.571s.524-.124.675-.631c.116-.4-.07-.757-.213-.837-.338-.196-1.058-.65-1.387-1.228-.72-1.28 1.885-2.695 3.583-3.87.48-.329.924-.551 1.253-.81.498-.39.445-.675.222-1.014-.142-.213-.31-.302-.622-.302q-.253 0-.507.133a7 7 0 0 1-.462.24c-.542.285-2.124 1.246-2.338 1.389-1.2.8-3.689 2.464-3.2 4.493.285 1.183 2.222 2.526 2.987 2.428z"/><path fill="#3F2C23" d="M60.831 12.198c.107-.054.213-.09.329-.125-.676-.525-1.885-1.54-1.893-2.117 0-.072.053-.072.097-.107-.4-.205-.889-.739-.87-.756.017-.018.71.471 1.004.569.026 0 .186.018.186.053.17.036.445.098.898-.089.623-.258 1.351-1.04 1.565-1.663q.12-.375 0-.614c-.222-.383-.596-.24-1.236.053a6.5 6.5 0 0 1-.898.356c-.337.098-.649.133-.924.17-.596.061-1.058.115-1.485.746-.569.854 1.13 2.26 3.032 3.648.062-.044.133-.089.204-.124z"/><path fill="#A6ABB9" d="M70.743 27.714s.053-.063.08-.098a8.5 8.5 0 0 1-1.493.142h-.09c-1.173 0-2.097-.276-2.88-.605-.017.071-.026.134-.044.205 1.298.854 2.969.622 4.427.355"/><path fill="#fff" d="M66.316 27.358c-.053.364.009.694.195.96.214-.169.596-.471.614-.453s-.382.471-.498.605c.133.142.302.267.498.356.115-.17.382-.588.409-.579s-.178.49-.25.64c.17.063.356.108.56.125.08-.15.312-.569.312-.542l-.16.551h.169c.924-.026 2.027-.596 2.587-1.308-1.45.267-3.13.49-4.427-.355z"/><path fill="#FACE9D" d="M66.112 29.253c.337.382.88.587 1.59.605 1.236.035 2.57-.97 3.068-1.37 0-.027.008-.054.035-.054 0 0 .018 0 .053-.018.072-.053.116-.089.116-.089.009.01.018.027.009.045.507-.16 2.018-.685 3.351-1.646.898-.64 1.423-1.388 1.547-2.197.169-1.095-.453-1.807-.453-1.815-.285-.365-.836-.57-1.52-.632.07.284-.027.738-.24 1.014-.214.285-.73.57-1.12.703q-.35.118-.685.116c-.551 0-1.04-.41-1.173-.819a.9.9 0 0 1 0-.525 6 6 0 0 0-.943.463l-.586.373c-1.503.961-2.925 2.047-4.65 2.154a14 14 0 0 1-1.209.017c-.87 0-1.626-.186-1.964.196q-.187.211-.214.596a.6.6 0 0 1 .018.187s-.009 0-.018.009c0 .044 0 .098.01.151.053.436.284.819.693 1.121 1.049.792 3.022.925 3.724.863-.026-.338.018-.614.018-.632 0-.026.054.668.507 1.175zm-.756-2.572c-.96-.48-1.716-.854-2.57-.435-.026.008-.23.124-.24.097-.008-.026.17-.186.196-.195.898-.436 1.68-.17 2.658.32.97.48 2.17.97 3.912.952 2.809-.036 4.267-.836 5.085-3.247.008-.027.017 0 .008.026-.444 1.869-1.582 2.99-3.458 3.39-.533.836-1.929 1.708-2.987 1.744h-.08c-.666 0-1.27-.258-1.6-.676-.284-.365-.329-1.05-.168-1.593l.008-.009a16 16 0 0 1-.773-.373z"/><path fill="#A6ABB9" d="m61.16 27.607-.08-.107c-.471.187-.684.614-.782.96-.134.5-.09 1.06.044 1.406.062-.035.133-.07.196-.106.08-.152.186-.285.275-.374-.213-.596-.009-1.254.356-1.77z"/><path fill="#fff" d="M61.702 28.132a2.8 2.8 0 0 1-.542-.525c-.364.516-.569 1.183-.356 1.77.08-.089.143-.142.143-.151.017-.018.07-.044.097-.036.018.018 0 .072-.008.09 0 0-.027.07-.027.213.507-.258.88-.427.995-.49q.267-.133.454-.24c.178-.098.364-.142.542-.133-.48-.098-.942-.258-1.298-.507z"/><path fill="#C7E8FA" d="M60.902 29.564c0-.053 0-.107.01-.142a1.2 1.2 0 0 0-.125.204c.044-.018.08-.044.115-.062m13.646-2.509s-.036.027-.054.036c.41.249.65.525.791.97.045.124.063.266.063.418.622.16 2.418.614 2.889.551.515-.07 2.516-4.608 2.516-5.338v-.018c-.178-.115-1.485.463-2.632.97-.746.33-1.502.667-2.169.925-.31.543-.8 1.068-1.395 1.486z"/><path fill="#231815" d="M73.357 20.498s.097-.071.106-.089c0-.427-.169-.783-.373-.783-.205 0-.374.356-.374.783s.17.783.374.783c.133 0 .258-.16.329-.41 0-.017-.036-.035-.062-.052-.054-.027-.116-.063-.116-.125 0-.036.044-.062.124-.125z"/><path fill="#A6ABB9" d="M67.552 51.601c-.187-.088-.125-.267-.107-.373a4 4 0 0 1-.747-.187.54.54 0 0 0-.115.365c.044.516.986.845 2.089.738.969-.089 1.75-.498 1.884-.943-.729.81-1.964.703-3.004.4"/><path fill="#fff" d="M68.485 50.97a1.17 1.17 0 0 0-.658.017c.213.036.436.027.658-.017"/><path fill="#A6ABB9" d="M67.027 50.658c-.24-.08-.427-.48-.24-.8-.231.187-.364.4-.347.614s.667.498 1.076.658c.098-.062.196-.107.302-.143a1.8 1.8 0 0 1-.8-.329z"/><path fill="#fff" d="M70.334 50.685c-.276.214-.684.4-1.129.516 0 0-.676.17-.035-.027.64-.195 1.262-.738 1.226-1.156-.026-.258-.24-.463-.578-.587v.009c-.026 1.076-.96 1.236-1.52 1.236h-.026c-.347 0-.694-.035-.916-.285a2.8 2.8 0 0 1-.444-.631c-.045.026-.09.062-.125.089-.178.32 0 .72.24.8.24.178.507.285.8.33.196-.063.41-.08.658-.018a2 2 0 0 1-.658.018c-.106.035-.204.08-.302.142.195.08.338.133.338.133s-.178 0-.427-.044c-.018.107-.071.285.107.374 1.03.311 2.266.418 3.004-.4a.4.4 0 0 0 .018-.179c-.018-.16-.062-.24-.231-.338z"/><path fill="#FDD000" d="M74.619 29.51h.009c0-.008-.018-.017-.027-.026 0 .009 0 .018.009.027z"/><path fill="#A6ABB9" d="M70.672 30.027c.818-.276 1.236-.943 1.404-1.797a8 8 0 0 1-1.226.293c-.907.899-1.654 1.646-2.978 1.69.933.196 1.902.187 2.809-.195zm-8.41 1.29s-.062.044-.098.062c-.062.044-.133.089-.195.133.551.543 1.218.783 1.476.863-.045-.124-.107-.267-.134-.516-.39-.142-.835-.23-1.049-.551zm4.996.952a.7.7 0 0 1-.089-.178c-1.262-.098-2.64-.267-3.333-1.38 0 .08.044.953 1.484 1.656.925.444 1.814.24 2.152.16-.08-.072-.09-.072-.214-.258"/><path fill="#fff" d="M75.001 28.096c-.142-.436-.267-.694-.613-.934-.783.525-1.636.863-2.312 1.076-.16.855-.586 1.522-1.404 1.798-.907.373-1.876.391-2.81.195h-.293q-1.053-.029-1.6-.578c-.64-.222-1.298-.427-1.831-.854a13 13 0 0 1-.782-.08 1 1 0 0 1 .48.356c.258.382.115.987-.418 1.414-.302.24-.72.525-1.165.837.214.32.658.409 1.05.551a3 3 0 0 1-.018-.311c0-.632.417-1.005.435-1.014.018 0 .125-.072.142-.054.018.01-.035.205-.035.223.693 1.112 2.071 1.28 3.333 1.379-.088-.276-.017-.57-.017-.596 0 0-.018 0-.027-.01 0 0 .018 0 .027.01 0-.027.017-.072.044-.072s.045.036.053.054c0 0 .036.044.116.115 1.022.41 2.134.516 3.236.525-.213-.338-.133-.596-.142-.605v-.017c0-.036.008-.09.026-.09.018-.008.045.054.063.063 0 0 .088.062.24.16 1.297.498 2.862.685 3.689-.311.142-.783.062-1.797-.16-2.216-.01-.017 0-.044.008-.062a.043.043 0 0 1 .063 0c.186.125.346.33.426.445.107-.214.365-.836.187-1.38z"/><path fill="#A6ABB9" d="M65.916 29.582s-.071-.09-.098-.134a1.6 1.6 0 0 1-.222-.64c-.107.009-.24.018-.391.018-.294 0-.658 0-1.05-.027.543.427 1.192.632 1.832.854l-.062-.062zm4.88 2.046c.294.178.818.48 1.45.703.64.222 1.804.454 2.08.48.008-.178-.063-.605.106-1.307.018-.063.027-.125.044-.187-.817.996-2.382.81-3.689.311zm-.053.667a1 1 0 0 1-.142-.187c-1.103-.008-2.205-.106-3.236-.524.213.186.729.578 1.716.952.862.329 1.502.204 1.902.115-.16-.08-.036-.124-.249-.365z"/><path fill="#FDD000" d="M81.802 32.126c-.134.018-.276.018-.436.018-1.787 0-4.871-1.076-6.347-2.108 0 0-.01 0-.018-.027-.098-.071-.187-.134-.267-.205.116.392.17.837.098 1.317.73.899 4.33 2.927 6.925 3.158a3.3 3.3 0 0 1-.151-.987c0-.41.071-.828.204-1.175zm-13.699.534s-.542.178-1.21.24c.036.107.072.223.107.338.276.89.587 1.895 3.245 1.833 1.414-.035 2.41-.347 2.96-.925.294-.312.32-.685.311-1.13-.48-.098-.995-.205-1.306-.32-.747-.258-1.351-.845-1.61-1.05.045.133.152.347.365.587.302.338 1.085.578 1.085.578.017 0 .035.027.035.054 0 .018-.017.044-.035.044-.045.01-1.058.24-1.823.24-.39 0-.809-.044-1.173-.186a4.13 4.13 0 0 1-1.787-1.29c.018.115.062.267.16.418.196.293.685.471.685.471a.06.06 0 0 1 .035.054c0 .017-.026.035-.044.044"/><path fill="#3F2C23" d="M69.267 40.445c-3.404 0-6.17-2.153-6.17-4.804 0-.641.16-1.37.374-1.798-.293.276-.595.596-.889.943.018.027-.258.347-.275.365-.16.205-.267.498-.338.854.009 0 .018.01.027.018.257.267.355.676.31 1.13.25.267.463 1.521.579 2.402 1.155 1.415 3.182 2.358 5.493 2.358 1.876 0 3.663-.632 4.89-1.717a7 7 0 0 0 1.057-1.975c.01-.036.027-.071.036-.107-1.156 1.263-3.12 2.33-5.103 2.33z"/><path fill="#3F2C23" d="M73.437 34.422c-.57.596-1.734.863-3.183.898h-.24c-2.525 0-3.067-.712-3.343-1.61a13 13 0 0 0-.337-.8c-.365-.018-.73-.08-1.058-.241 0 0-.009 0-.018-.009a1 1 0 0 0-.08.071c-.329.454-.444 1.041-.347 1.806.258 2.073 2.303 3.461 5.094 3.461 2.018 0 4.258-.898 4.65-2.615a4 4 0 0 0-.48-1.308c-.09-.16-.196-.303-.303-.454-.035.356-.133.57-.347.792z"/><path fill="#FDD000" d="M69.783 38.372c-2.845 0-4.934-1.432-5.2-3.559-.098-.756.15-1.619.48-2.1q-.468.254-.907.561a6 6 0 0 0-.418.33 1 1 0 0 1-.062.097c-.25.338-.383.899-.383 1.62 0 2.588 2.72 4.697 6.063 4.697 1.965 0 3.823-.748 4.96-1.993.018-.018.054-.027.072 0l.008.009c.25-.819.32-1.646.214-2.402-.542 1.654-2.863 2.749-4.836 2.749zm-6.818 1.824c0 .08.008.151.017.196v.07c.018.428.036.837-.302.988-.133.063-.542.142-1.004.205.693.738 1.67 1.28 2.79 1.592.614-.516 1.272-.978 1.672-.916.667.098.836.8.791 1.192a8 8 0 0 0 1.467-.213c.151-.045.285-.08.427-.125l.16-.053H69c.017 0 .035-.01.053-.018a.043.043 0 0 1 .053-.018c.258-.089.49-.169.676-.24 1.236-.507 2.302-1.255 3.129-2.189-1.236.961-2.907 1.655-4.605 1.655-2.195 0-4.133-.836-5.334-2.117z"/><path fill="#A6ABB9" d="M94.202 28.274a1 1 0 0 0 .045-.125c.044-.16.053-.56.053-.987a.6.6 0 0 1-.23-.045c.07.285.115.721.132 1.166z"/><path fill="#fff" d="M94.06 25.596s-.018-.009-.044 0c-.071.053-.151.098-.223.142-.08.054-.16.098-.24.152-.053.329 0 .676.152.925.008 0 .026-.018.035-.027.053-.035.116-.035.16 0 .062.045.107.16.151.33a.7.7 0 0 0 .231.044c-.008-.685-.088-1.46-.24-1.557z"/><path fill="#A6ABB9" d="M93.562 25.89a1 1 0 0 0-.204.195 1.6 1.6 0 0 0-.258.56 2.3 2.3 0 0 0-.089.695 2.5 2.5 0 0 1 .534-.427c.053-.036.115-.071.168-.107-.16-.25-.213-.596-.15-.925z"/><path fill="#fff" d="M82.957 34.297c.107-.204.311-.418.205-.73.106.419.622.312.933.312.178-.089.284-.258.24-.436 0-.027-.018-.053-.027-.08l.027.08a2 2 0 0 1-.044-.205 6.5 6.5 0 0 1-.907-.649l-.045.783s-.08-.445-.15-.72a.7.7 0 0 1-.027-.268c-.027-.017-.045-.044-.072-.062a6 6 0 0 1-.613-.703c-.436.338-.684.943-.684 1.682 0 .329.062.631.168.907.276.24.72.303.996.098z"/><path fill="#A6ABB9" d="M84.344 33.443c.044.178-.053.347-.24.436-.311 0-.836.107-.933-.311.106.311-.107.525-.205.73-.267.204-.711.142-.996-.099.258.668.792 1.121 1.414 1.121q.293 0 .56-.133c-.347-.472-.569-1.121-.56-1.13.026-.009.844 1.254 1.262 1.254a.85.85 0 0 0 .57-.24c-.454-.4-.73-1.023-.872-1.646z"/><path fill="#fff" d="M93.474 29.404c.062.125.284.178.515.125.062-.641 0-2.207-.222-2.358 0 0-.018-.01-.045 0-.07.053-.15.098-.222.142a1.6 1.6 0 0 0-.347.25c-.213.613-.15 1.37.312 1.832z"/><path fill="#A6ABB9" d="M93.474 29.404c-.463-.463-.525-1.219-.312-1.833-.142.134-.258.33-.355.667a2 2 0 0 0-.08.499c.026-.018.062-.036.089-.063.053-.035.115-.035.16 0 .204.143.293 1.21.302 2.056.302-.365.613-.73.684-1.006.01-.044.018-.116.027-.195-.231.053-.453 0-.516-.125"/><path fill="#fff" d="M88.895 34.297c.134-.018.25-.053.365-.107a.74.74 0 0 1 .08-.409 6.1 6.1 0 0 1-1.903.303 6.1 6.1 0 0 1-2.578-.57c.454 1.61 2.81 1.192 4.045.783zm1.183-1.005c-.418.24-.658.676-.756.863.338-.178.578-.49.756-.863"/><path fill="#A6ABB9" d="M91.393 33.568c-.204.106-.418-.205-.524-.312-.285-.49-.418-1.12-.285-1.672a2.27 2.27 0 0 0-.124 1.308h.009v.097c.062.24.15.374.142.383 0 0-.089-.071-.178-.214a1.4 1.4 0 0 0-.373.143c-.169.373-.418.685-.756.863-.026.062-.044.098-.053.098 0 0-.018-.018-.018-.063a1.2 1.2 0 0 1-.364.107c-1.236.41-3.592.828-4.045-.783-.036-.018-.08-.036-.116-.053.187 1.005.552 1.699 1.494 1.86 1.218.204 4-.054 4.311-.49.116-.151.25-.32.4-.498.276-.32.551-.659.667-.926-.062.045-.142.098-.222.152z"/><path fill="#fff" d="M91.464 30.756s-.017-.009-.044 0c-.071.054-.151.098-.222.143-.24.15-.462.284-.622.685-.134.551 0 1.183.284 1.672.107.107.311.418.524.312.08-.054.16-.107.223-.152.017-.035.026-.08.035-.115.107-.418.054-2.385-.186-2.554z"/><path fill="#A6ABB9" d="M91.927 29.938c-.018.053-.045.115-.062.187-.072.24-.09.462-.09.649.036.151.063.338.08.543.063.222.143.347.134.356 0 0-.053-.036-.116-.116.045.57.054 1.21.027 1.601.116-.15.249-.32.4-.498.311-.373.64-.756.711-1.032v-.018c-.942.116-1.209-.791-1.093-1.663z"/><path fill="#fff" d="M92.825 29.057s-.018-.009-.045 0c-.071.053-.151.098-.222.142-.258.151-.48.294-.64.73-.116.872.15 1.78 1.093 1.664.098-.445.054-2.367-.195-2.536z"/><path fill="#C7E8FA" d="M59.924 42.776a2 2 0 0 1-.177-.312c-.632.499-2.534 1.77-2.543 1.958v.026c.187.187 2.863-1.076 3.138-1.192a3 3 0 0 1-.418-.48"/><path fill="#A6ABB9" d="M61.818 40.658c-.542-.178-.925-.596-1.156-1.112a2.7 2.7 0 0 1-.649.223c.178.222.587.596 1.298.774.311.08.267.098.151.098.116.044.24.089.356.026z"/><path fill="#fff" d="M62.822 40.4v-.07c-.017-.419-.31-2.047-.595-2.705a3.2 3.2 0 0 1-.81 1.388c-.221.222-.48.39-.746.524.231.516.614.934 1.156 1.113-.116.062-.24.017-.356-.027-.098 0-.231-.01-.231-.01a2.8 2.8 0 0 1-.622-.142c.017.356.4.463.39.49 0 .026-.497-.09-.56-.49 0 .116 0 .508-.026.525-.009 0-.195-.516-.15-.676a1.8 1.8 0 0 1-.419-.338 1.3 1.3 0 0 0-.542-.115c-.267.409.338.907.542 1.014.88.356 2.365.48 2.987-.312v-.15z"/><path fill="#A6ABB9" d="M62.831 40.552c-.622.791-2.098.667-2.987.311-.204-.098-.8-.605-.542-1.014-.107 0-.222.009-.32.035-.231.054-.329.134-.338.178 0 .01 0 .027.027.045.16.115.418.373.693.65.294.293.596.595.765.702.302.196 2.098-.018 2.436-.169.24-.107.266-.391.248-.738z"/><path fill="#3F2C23" d="M64.13 43.54c-1.059-.257-1.983-.702-2.641-1.396a3.4 3.4 0 0 1-.347-.436 5 5 0 0 1-.489.027c-.284 0-.524-.027-.63-.098a3 3 0 0 1-.312-.258c.018.205.044.4.098.587.027.063.07.205.098.285.062.16.142.32.249.471.64.935 1.973 1.273 3.458 1.3.15-.152.328-.312.506-.472z"/><path fill="#A6ABB9" d="M60.627 38.06c-.258.018-.498.063-.676-.115-.027-.053-.035-.107-.044-.16a1.2 1.2 0 0 1-.48.187h-.072c-.346 0-.942-.267-1.546-.668-.045.579.169 1.068.55 1.406.57.498 1.672.089 1.68.116.01.017-.746.409-1.413.284.027.036.045.063.072.09.444.462 1.226.462 1.946.07-.453-.16-.213-.81-.026-1.21z"/><path fill="#fff" d="M61.747 36.219a.35.35 0 0 0-.222-.09c.035.686-.214 1.398-.232 1.398 0 0 .178-.774.054-1.415a.1.1 0 0 1-.018-.035v-.018c-.071-.303-.205-.57-.48-.703-.471-.223-.996-.347-1.556-.107a3 3 0 0 0 .631.436c.134.08.258.151.365.231.231.196.293.623.16 1.077-.107.347-.293.623-.542.792q.002.08.044.16c.169.169.418.133.676.115-.187.392-.436 1.05.026 1.21.178-.097.356-.213.516-.364.044-.036.08-.072.124-.107.845-.819 1.05-1.975.463-2.58z"/><path fill="#FFF3B8" d="M61.996 35.516c-.098.134-.196.276-.294.41q.083 0 .151.026c.045-.16.09-.302.143-.436"/><path fill="#3F2C23" d="M61.116 56.183c-1.636.018-2.987-.409-3.414-1.112-.764 1.513-.542 3.497-.516 3.701.08.071.587.49 1.867.748 1.263.258 2.33.088 2.587.08l-.044-.454s.16.089.169.071c.017-.009.035-.009.044 0 2.107.765 4.142 1.753 6.916 1.762 1.422 0 2.818-1.273 3.574-1.85.142-.108.266-.206.364-.277.107-.08.16-.16.133-.24-.062-.302-.88-.65-1.573-.783q-.106-.015-.24-.044c-.907-.151-2.774-.454-6.756-2.518-.649.525-1.876.89-3.13.898z"/><path fill="#FDD000" d="M59.729 39.813v-.009h-.018s.018 0 .027.01z"/><path fill="#fff" d="M60.262 54.101c-.524 0-1.253.312-.836.623 1.325 1.059 3.174.926 4.659.09a.85.85 0 0 0 .222-.544c0-.258-.062-.382-.32-.569-.471.294-1.147.525-1.867.65 0 0-1.093.169-.062-.045 1.04-.213 2.116-.979 2.116-1.646 0-.49-.427-.88-1.12-1.13-.018.16-.027.294-.036.41-.036 1.014-1.29 1.352-2.16 1.352 0 0-.694 0-1.031-.374-.232-.249-.312-.8-.276-1.503-.276.07-.533.16-.756.267-.542 1.023.41 2.322 1.458 2.42z"/><path fill="#A6ABB9" d="M59.427 54.724c-.418-.311.31-.623.835-.623-1.04-.097-2-1.396-1.458-2.42-.586.276-.95.668-.95 1.095 0 .507 1.448 1.316 1.44 1.343 0 .018-.56-.196-1.076-.471-.196.195-.303.409-.303.622 0 .819 1.431 1.486 3.192 1.486 1.342 0 2.498-.391 2.969-.943-1.485.828-3.334.97-4.658-.089z"/><path fill="#FDD000" d="M66.014 42.758h-.054c-.613 0-1.617.899-2.204 1.646-1.636 2.073-3.334 4.457-3.583 6.023-.16.996-.24 1.877.027 2.189.16.187.409.276.747.276.826 0 1.662-.08 1.698-1.015.035-1.032.435-4.226 3.778-8.105.133-.178.16-.471.062-.694a.53.53 0 0 0-.48-.32z"/><path fill="#3F2C23" d="M68.69 52.411c-.836.08-1.796.027-2.258-.391-.365.934-.205 2.055-.187 2.18.053.044.382.293 1.191.435.8.134 1.467.01 1.627 0l-.125-.614s.098.054.107.045h.027c1.333.436 2.729 1.343 4.471 1.299.898-.027 1.742-.854 2.214-1.228.088-.071.168-.133.222-.178.071-.053.098-.098.08-.151-.045-.187-.57-.392-1.005-.463-.044 0-.097-.018-.15-.018-.587-.08-1.805-.24-4.463-1.53-.4.312-1.067.56-1.752.623z"/><path fill="#FDD000" d="M69.267 43.496c-1.404 2.27-1.822 3.568-1.964 4.894q-.025.267-.062.533c-.09.703.257 1.282.933 1.362.622.08 1.244-.054 1.271-.988v-.436c-.027-1.112.151-3.211 1.92-6.405a9 9 0 0 1-1.538.836c-.16.062-.346.133-.55.204z"/><path fill="#A6ABB9" d="m61.08 18.505 1.005-2.5 1.502-.72h1.04l1.165.498 1.226 1.139 2.205 3.327.978.943.729.703.346.187-.39.133s-.339.24-1.299-.89c-.773-.916-2.675-4.279-3.742-4.973-3.316-2.162-4.783 2.153-4.783 2.153zm12.677-2.935-.88.213-.32.765.168 2.482.116-.08s.018-2.242.107-2.518c.168-.498.666-.498 1.04-.391.24.062.506.276.506.276l-.746-.739z"/><path fill="#BD8B5E" d="M74.414 24.2c-.32.969-.586 1.627-1.226 2.286-.64.658-2.16.898-2.16.898l-1.85.116-2.16-.32-2.133-.837-.943-.373-1.36.311s.32-.436 1.032-.436c.773 0 2.435.739 3.19.979 1.005.32 2.428.631 4.294.258 2.543-.498 3.316-2.892 3.316-2.892z"/><path fill="#BD8B5E" d="m62.022 25.534-.87.107-.374.916.827 1.379 1.102.525 1.698.347h1.182l.702.89 1.68.418 1.716-.632 1.076-.997s-2.027 1.38-3.094 1.255c-1.058-.125-1.227-.338-1.52-.614-.338-.32-.48-.712-.48-.712s-1.076.134-2.142-.08c-1.21-.249-2.25-.925-2.25-1.797 0-1.103.738-1.005.738-1.005z"/><path fill="#9AD2EF" d="M64.627 21.477v1.379l.56 1.192.667.25.79-.419v-.436s-.408.57-.88.454c-.87-.205-1.146-2.42-1.146-2.42z"/><path fill="#fff" d="M65.48 22.135c.089 0 .16-.167.16-.373 0-.207-.071-.374-.16-.374-.088 0-.16.167-.16.374 0 .206.072.373.16.373m7.388-1.477c.068 0 .124-.135.124-.302s-.056-.303-.124-.303c-.07 0-.125.136-.125.303s.056.302.125.302"/><path fill="#005AA0" d="m72.725 19.137-.035.899-.178 1.058-.071.187.142.196.124-.49v-.569l.098-.525.063-.854z"/><path fill="#9AD2EF" d="m47.221 22.473 5.058 5.614 1.787.534 5.867.498.054-.57s-7.93-2.917-9.654-3.95c-1.725-1.031-3.112-2.135-3.112-2.135zm.827 9.289 4.56 2.437 3.387-1.307 1.485-.641 2.622-2.055s-8.178 2.082-9.387 1.94c-1.21-.143-2.667-.374-2.667-.374m9.022 12.775 1.05-.089 2.622-1.076-.64-.41zm24.35-27.864c-.783 2.206-1.432 3.514-2.374 4.493-.934.978-3.138 2.295-3.138 2.295l.16 1.04-.258.74 1.644-1.024 2.72-1.628.56-1.815.739-3.23-.063-.854zM79.366 27.42c-.97.507-1.574.551-2.018.507-.445-.044-2.276-.098-2.276-.098l.276.65 2.275.676.712.187.773-.997.258-.907z"/><path fill="#FFF3B8" d="m61.151 12.322-.933.872-.57 1.975.25 2.758.284 1.299s-.507-4.537.338-5.516c.756-.872 1.253-1.059 2.471-.747 1.227.311 4.516 2.953 4.516 2.953l-1.973-2.081-2.25-1.53-1.688-.259-.463.258z"/><path fill="#59504D" d="M72.554 23.012c.664-.106 1.152-.507 1.09-.895s-.65-.617-1.315-.51-1.152.507-1.09.895c.062.389.651.617 1.315.51"/><path fill="#fff" d="M72.823 22.482a.9.9 0 0 0 .391-.249c.08-.098.116-.204.08-.294-.026-.088-.115-.15-.24-.177a1 1 0 0 0-.16-.018 1 1 0 0 0-.302.053c-.32.107-.533.356-.471.543s.382.249.702.151z"/><path fill="#59504D" d="M61.533 41.735c-.044-.071-.089-.134-.133-.205a1 1 0 0 1-.222.054 6 6 0 0 0-.703.089c.125.311.312.587.552.791.506.436 1.235.605 2.098.57-.605-.33-1.174-.703-1.583-1.29zm2.267-4.208c-.586-1.166-.711-2.43-.373-3.612-.33.258-.551.542-.845.863-.15.16-.293.338-.435.516-.062.249-.125.498-.205.747v.33c.214.355.294.773.33 1.191.16.41.266.819.328 1.264.045.302.107.605.151.907.205.196.4.4.614.587.355.312.755.57 1.137.846.365.266.72.471 1.174.542s.907.063 1.351.142a17.5 17.5 0 0 0 2.16-1.29q.147-.104.294-.222c-2.17-.098-4.498-.863-5.663-2.802z"/><path fill="#59504D" d="M70.823 35.178c-1.911.356-4.063-.516-4.463-2.447a4 4 0 0 1-.577-.044c-.276.08-.543.187-.81.32-.533 1.317-.31 2.785.587 3.692 1.334 1.433 3.36 1.86 5.307 1.477a5.07 5.07 0 0 0-.053-2.998zM64.662 55.32l3.423 1.726 2.685.748s1.466.106 1.404.284.027.783-2.018 1.255c-2.578.587-2.791.507-4.862-.151-2.072-.659-2.578-1.415-4.01-1.326-.515.035-1.35.845-2.63.285-1.459-.641-1.183-1.646-.97-2.314.214-.667.178-.32.178-.32s.151.605 2.169.836c3.2.365 4.631-1.032 4.631-1.032zm6.188-3.47 2.302.988 1.778.383s.96 0 .924.124c-.035.125.054.507-1.262.899-1.653.49-1.805.445-3.174.098-1.377-.347-1.2-.312-2.133-.765-.355-.17-1.12-.855-1.12-.855 1.982-.106 2.685-.872 2.685-.872M57.23 9.04l.783-.988 1.156-.143 1.147-.436.844-.284s.64-.294.765.142c.124.436.017.765-.552 1.139-.569.373-1.537.614-2.142.436-.436-.125-.942-.347-1.271-.223-.33.125-.462.392-.356.676s.267.783.267.783l-.64-1.112zm8.624-.988.96-.854 1.769.088.88-.186.675-.223s.694-.178.747.276-.115.774-.756 1.059c-.64.284-1.653.347-2.24.07-.417-.195-.889-.506-1.235-.444s-.534.311-.48.614c.053.302.133.836.133.836z"/><path fill="#FFF3B8" d="M75.446 16.948v-1.032l-.383-1.272-.844-.596-.925.25-.569.489-.497.711-.258.961s.71-1.975 1.938-1.886c.817.062.95.41 1.146.907.214.534.383 1.477.383 1.477zM72.36 11.94l-.737.382-.818.214-.889.23s1.111.019 1.538-.115c.765-.249.854-.525.854-.525l.062-.178zm-8.906.489 1.875-.49 1.174-.16 1.653.16.729.125 1.022-.293 1.378-.81s-.018.107-.346.543c-.427.56-1.69.845-1.938.916 0 0-1.28-.267-2.143-.267-1.449 0-3.049.516-3.049.516l-.364-.25zm-3.716 2.455-1.2 1.682-.792 2.206v1.824l.454 1.735s-.454-2.073.213-4.288c.338-1.13 1.325-2.491 1.325-2.491zm3.556 13.995h-.703l-1.804.979-2.792 1.779-1.209 1.281-.622 1.495.356 1.317s-.16-1.201.186-1.904c.516-1.06 1.707-2.073 3.396-3.132 1.183-.738 2.285-1.548 2.73-1.593.63-.062.888.214.888.214l-.418-.454z"/><path fill="#FFF3B8" d="M58.484 33.95s-.373.276-.195.979 1.306 1.308 1.422 1.486.231.329.133.73c-.106.444-.435.426-.435.426l.693-.231.116-1.3-1.272-.924-.417-.64-.054-.526zm14.588-1.165s.133 1.076 0 1.414-.24.445-.24.445l.853-.907v-.934l-.604-.018zm1.689-2.847c1.156 1.103 4.08 2.277 5.476 2.473 1.271.178 1.342.17 1.502.16l.214-.578-2.525-.338-3.236-1.086-1.529-.925.107.303zm-9.058 12.758c.569.133.63.551.489.827-.143.276-.854 1.112-1.494 1.984-1.244 1.7-2.125 3.897-2.285 4.715-.373 1.869-.488 2.643-.328 2.66.293.036.755-.845.755-.845l.293-2.01 1.192-2.919 1.173-1.734.987-1.353.24-.703-.267-.613h-.738zm5.289-.071s-.454.667-.845 1.637-.826 2.41-.969 3.692a10 10 0 0 0 0 2.268l.294-.355.222-1.068.213-2.411.845-2.242.951-1.86z"/><path fill="#BD9C00" d="m58.2 22.322.302 1.255 1.342 1.725 1.067.935.471-.703 1.627-.142s-1.609.08-2.782-.694c-2.134-1.397-2.018-2.385-2.018-2.385zm5.351 6.86c-.089.551-.56.702-1.475 1.334-.916.632-2.445 1.69-3.005 2.393-1.12 1.38-.622 1.38-.622 1.38l1.484-1.486 2.143-1.584 1.449-.828.409-.631zm-7.094 6.316.783 1.38 1.582.747.836.089.24-.472s-.391.311-1.245-.151c-.907-.49-2.196-1.602-2.196-1.602zm18.331-4.155c.23 0 1.59 1.068 1.59 1.068l2.241 1.281 2.125.596 1.209.16-.312-.64s-2.035-.33-3.502-.997-3.28-1.93-3.28-1.93zm-.143 6.451.152-1.433-.178-.738-.356.507s.08 1.236-.444 2.447c.32-.258.595-.48.826-.783m-4.711 4.493c-1.671.854-3.227.898-3.227.898v.836l2.978-.854 2.703-1.78 1.164-1.227c-.578.48-1.253.8-1.92 1.094a11.4 11.4 0 0 1-1.707 1.041zm-6.64.516s.986.293 1.502.23c.515-.062-.445.428-.445.428z"/><path fill="#FFF3B8" d="m65.098 32.66-.453.143-.64.471-.178.116c-.133.222-.276.48-.409.703.533-.436 1.573-1.095 1.573-1.095l.116-.347z"/><path fill="#BD9C00" d="m69.116 43.523-1.351 2.393-.533 2.153-.16 1.575.462.667s1.182.09 1.102.09-.658-.116-.755-1.397c-.054-.748.55-3.07.977-3.906s.898-1.886.898-1.886l-.649.302zm-3.236-.907-1.244.596-1.814 1.94-1.742 2.81-1.058 2.136-.195 1.86.506 1.13 1.067-.223s-.453-.16-.569-.703.16-1.904.809-3.399c.711-1.646 2.516-4.199 2.88-4.635.498-.605 1.36-1.512 1.36-1.512"/><path fill="#A6ABB9" d="M82.78 25.036q-.385.106-.73.266a5.85 5.85 0 0 0-.569 2.527c.143-.249.436-.454.863-.596v-.071c0-.756.16-1.477.444-2.126zm2.444-2.714c.071 0 .151-.018.231-.018.205-.098.418-.178.631-.249-.293.071-.586.16-.862.267"/><path fill="#8F85AF" d="M84.868 22.616c-.133.018-.248.035-.355.044a5.86 5.86 0 0 0-2.25 2.242q.348-.16.72-.267a5.34 5.34 0 0 1 1.894-2.01z"/><path fill="#A6ABB9" d="M89.278 32.785c.204.15.417.276.657.391.01 0 .018-.009.027-.018.08-.044.178-.098.276-.142q.052-.025.106-.062a1.8 1.8 0 0 1-.15-.552 7 7 0 0 1-.916.383"/><path fill="#FDD000" d="M83.633 32.393c-.071-.062-.33-.311-.534-.507q.254.267.534.507"/><path fill="#A6ABB9" d="M85.153 31.886c.498.819 1.173 1.513 2.071 1.842.027.009.32 0 .32.018a5.9 5.9 0 0 0 2.276-.517c-.427-.204-.8-.48-1.12-.8a5.3 5.3 0 0 1-3.547-.543m-2.898-4.43c-.391.106-.631.293-.72.507 0 .017-.027.026-.045.026a5.9 5.9 0 0 0 1.192 3.399c-.427-1.014-.578-3.043-.427-3.941z"/><path fill="#A59ACA" d="M93.056 26.085a7 7 0 0 0-.427-1.04v.017q.24.56.347 1.175a1 1 0 0 1 .089-.152z"/><path fill="#8F85AF" d="m89.189 32.714.018-.018a4 4 0 0 0 .977-.48q0-.161.027-.321-.642.347-1.378.507c.107.107.222.214.347.312zM82.353 27.5c-.125.96.338 3.416.818 4.288.017.027.506.596.488.614a5.8 5.8 0 0 0 2.925 1.281c-.88-.436-1.484-1.219-1.911-2.1a5.37 5.37 0 0 1-2.32-4.083"/><path fill="#C7E8FA" d="M92.62 25.062c-.818-1.913-2.711-3.265-4.925-3.265-.56 0-1.102.09-1.609.25a5.86 5.86 0 0 1 3.796.4c.213.329.311.765.276 1.245-1.858-1.45-3.61-1.486-4.703-1.397-.204.098-.4.196-.587.32 1.156-.142 3.334-.31 5.28 1.202-.052.436-.221.898-.506 1.37-.053.08-.107.169-.16.249-1.733-.81-4.356-1.424-6.49-.8a6 6 0 0 0-.195.409c2.151-.632 4.943-.294 6.632.48-.747 1.059-1.84 1.94-2.374 2.34-2.107-.881-3.742-.934-4.702-.623 0 .089 0 .178.009.267q-.002-.042.008-.071c.338-.08.774-.107 1.298-.063.09.801.258 2.67 1.005 4.218.151.106.32.204.48.293-.97-1.584-1.29-3.639-1.387-4.502.791.08 1.778.32 2.951.792v.027c0 .035.365 2.651 1.974 4.235.044 0 .089-.018.142-.027a4.4 4.4 0 0 1-.56-.676c1.342-1.068 4.33-3.772 4.347-6.655zm-5.511 3.203c.186-.169 1.866-1.512 2.79-3.025.64-1.04.899-1.832.49-2.518a6 6 0 0 1 1.938 1.833c.062 2.874-2.765 5.997-4.116 7.082-.925-1.415-1.093-3.14-1.111-3.372z"/><path fill="#fff" d="M87.038 27.856c.533-.4 1.626-1.281 2.373-2.34-1.69-.783-4.48-1.121-6.632-.48a5.3 5.3 0 0 0-.444 2.126v.071c.96-.311 2.587-.258 4.703.623m3.12-4.164c.044-.48-.054-.907-.276-1.245a5.83 5.83 0 0 0-3.796-.4 5 5 0 0 0-.63.248c1.093-.089 2.844-.053 4.702 1.397"/><path fill="#A59ACA" d="M89.464 25.427c.054-.08.107-.169.16-.25.285-.462.454-.933.507-1.37-1.947-1.52-4.125-1.343-5.28-1.2a5.5 5.5 0 0 0-1.894 2.01c2.134-.622 4.756 0 6.49.801z"/><path fill="#fff" d="M92.327 24.555a6 6 0 0 0-1.938-1.833c.409.685.15 1.486-.49 2.518-.924 1.513-2.604 2.856-2.79 3.025.017.231.186 1.957 1.11 3.372 1.352-1.085 4.17-4.208 4.117-7.082z"/><path fill="#fff" d="M86.717 28.167c-1.173-.471-2.16-.703-2.95-.792.097.872.417 2.927 1.386 4.502a5.3 5.3 0 0 0 3.547.543c-1.61-1.593-1.974-4.208-1.974-4.235v-.027z"/><path fill="#A59ACA" d="m91.242 30.507.213-.133q.054-.04.107-.027c.01-.107.027-.222.063-.338.16-.57.586-.934.888-1.13a1.9 1.9 0 0 1 .054-.756c.053-.196.142-.374.249-.525-.045-.258-.054-.739.035-1.059a1.4 1.4 0 0 1 .116-.293q-.107-.614-.347-1.175c-.018 2.883-3.005 5.587-4.347 6.655.16.24.356.463.56.676a5.2 5.2 0 0 0 1.378-.507c.009-.062.027-.133.044-.196.178-.631.685-1.014.978-1.192zm-8.88-3.078s0 .044-.01.071a5.34 5.34 0 0 0 2.32 4.084c-.746-1.557-.924-3.417-1.004-4.218-.524-.044-.96-.017-1.298.063z"/><path fill="#231815" d="M71.908 22.491c.053.17.337.33.586.33q.162 0 .338-.054c.178-.062.329-.16.436-.285s.257-.382.222-.507-.24-.267-.41-.311a.95.95 0 0 0-.515.035c-.382.125-.738.543-.657.792m.684-.694a.9.9 0 0 1 .302-.053c.053 0 .107 0 .16.018.125.026.214.097.24.177q.04.134-.08.294a.9.9 0 0 1-.39.25c-.32.106-.641.035-.703-.152s.15-.436.471-.543zm-6.472 5.267c-.15.534-.115 1.219.17 1.593.328.418.933.676 1.6.676h.08c1.057-.036 2.453-.908 2.986-1.744 1.876-.4 3.014-1.521 3.458-3.39 0-.026 0-.053-.009-.026-.817 2.41-2.275 3.211-5.084 3.247-1.743.018-2.943-.463-3.912-.952-.987-.49-1.76-.765-2.658-.32-.026.009-.204.169-.195.195.009.027.213-.089.24-.097.853-.419 1.609-.036 2.569.436q.36.186.773.373s-.009 0-.009.01zm.231.089c.774.33 1.707.605 2.88.605h.09c.542 0 1.04-.053 1.493-.142-.533.756-1.698 1.37-2.667 1.405h-.169l.16-.551s-.222.391-.31.543a2.3 2.3 0 0 1-.56-.125c.07-.151.266-.632.248-.64-.018 0-.293.409-.409.578a1.6 1.6 0 0 1-.498-.356c.116-.134.516-.587.498-.605s-.4.285-.613.454c-.214-.32-.267-.721-.151-1.166zm-.533-8.025c-.72 0-1.475 1.148-1.475 2.553s.462 2.758 1.6 2.758c.72 0 1.297-1.147 1.297-2.553s-.702-2.758-1.422-2.758m0 5c-.658 0-1.2-1.103-1.2-2.447 0-1.343.533-2.446 1.2-2.446s1.2 1.103 1.2 2.447c0 1.343-.533 2.446-1.2 2.446"/><path fill="#231815" d="M65.845 20.311c-.427 0-.845.65-.845 1.468 0 .819.418 1.673.845 1.673.284 0 .853-.4.853-1.112 0-.107-.489-.16-.489-.196.01-.027.516-.213.516-.276 0-.827-.453-1.557-.88-1.557m.47 1.61c-.132.099-.203.152-.212.214-.01.116.106.17.195.214.053.026.125.062.116.089-.116.436-.338.712-.57.712-.355 0-.657-.623-.657-1.362 0-.738.302-1.361.658-1.361.355 0 .658.623.658 1.361a1.2 1.2 0 0 1-.178.151z"/><path fill="#231815" d="M94.211 25.205a.13.13 0 0 0-.16 0 1.4 1.4 0 0 1-.213.133c-.151.098-.373.25-.569.463a6.205 6.205 0 0 0-5.84-4.128c-3.414 0-6.196 2.784-6.196 6.2 0 1.29.39 2.483 1.066 3.48a1.6 1.6 0 0 0-.31.364c-1.645.134-5.29-.818-6.908-1.868.089-.267.24-.783.258-1.264.613.205 2.249.739 2.862.739h.125c.64-.098 2.72-5.187 2.729-5.88a.13.13 0 0 0-.054-.108c-.213-.142-1.386.418-2.933 1.112-.694.312-1.413.677-2.045.952.063-.115.107-.231.151-.355 1.165-.801 3.316-2.127 3.814-2.314.071-.026.267-.098.507-.854.693-2.135 2.204-9.315 1.938-9.724-.018-.027-.054-.045-.098-.045-.578 0-4.774 5.348-6.552 7.856a6.5 6.5 0 0 0-.258-2.25c.16-2.492-.515-3.888-1.315-4.022-.382-.062-.773.143-1.138.498a5.8 5.8 0 0 0-1.218-.818c.213-.09.862-.676.862-1.842 0-.026.027-.133 0-.151-.017-.009-.08.08-.088.107-.276.364-1.263.836-1.627.89.346-.196.666-1.06.489-1.851 0-.018-.16.142-.178.151-.4.427-1.2.88-1.805 1.148-.435-.498-1.51-1.797-1.422-2.384.009-.08.24-.018.027-.09.009 0 .07.018.115.036.16.062.454.187.96.071.685-.16 1.858-1.236 2.187-1.841.142-.258.178-.49.098-.685-.196-.525-1.093-.214-1.734-.045-.284.071-.595.16-.933.196-.338.044-.64.018-.925 0-.595-.036-1.493-.134-2.053.454-.791.836.782 2.713 2.854 4.51-.694-.16-1.716-.373-2.41-.373a9.1 9.1 0 0 0-3.209.578c-.613-.25-1.218-.347-1.777-.231-.578-.48-1.654-1.442-1.663-1.984 0-.08.231-.063.009-.098.009 0 .071 0 .116.018.169.035.48.106.96-.098.649-.267 1.626-1.54 1.84-2.189.098-.285.089-.516-.018-.694-.285-.49-1.111-.027-1.716.258-.266.125-.56.258-.88.356a4.5 4.5 0 0 1-.907.16c-.595.062-1.493.125-1.946.8-.623.935 1.147 2.465 3.404 3.853-.497.436-.737 1.21-.817 2.082-1.44 1.504-2.32 3.479-2.32 5.614s1.164 4.19 2.826 5.72c-2.489-1.272-5.725-3.31-8.596-4.91-4.374-2.438-7.876-4.333-8.232-4.227a.1.1 0 0 0-.062.054c-.026.053.009.32.053.436.57 1.619 8.161 10.578 9.103 11.023.89.418 3.467.667 5.387.792-1.964 0-4.24-.205-6.311-.24-3.912-.08-7.112-.25-7.298.08-.027.044-.018.089 0 .133.373.623 7.404 5.356 8.614 5.356.044 0 .088 0 .115-.018.142-.053 2.41-1.12 3.823-1.815-.703.81-1.12 1.717-.898 2.67.15.649.87 1.405 1.644 1.965-.098.686.134 1.424.587 1.78.08.062.16.107.249.142a.9.9 0 0 0 .231.374c.107.107.231.187.364.249-.106 0-.204 0-.284.027-.24.053-.391.15-.418.258 0 .035 0 .097.071.15.152.108.632.553.89.81l.168.17c.018.346.071.685.17.987-.276.267-.685.605-1.076.934-.872.72-1.503 1.38-1.44 1.53.026.063.39 0 .506 0 .445 0 1.245-.258 2.72-.756.196-.07.365-.124.498-.169.658.436 1.511.739 2.41.837-1.814 1.895-3.317 4.742-3.548 6.236l-.053.374c-1.387.311-2.187 1.13-2.187 1.815 0 .222.311.471.676.694-.543.151-.534.471-.543.712v.062h-.017c-1.094 1.637-.56 4.83-.551 4.84.017.017.648.409 2.08.703 1.422.284 2.8-.045 2.809-.045.026 0 .044-.027.044-.053v-.312c.605.214 4.658 2.038 6.498 2.038.125 0 .25 0 .356-.018 1.44-.205 3.636-1.824 4.4-2.411.143-.107.267-.205.365-.276.15-.107.204-.222.178-.347-.09-.392-1.04-.747-1.654-.863-.071-.009-.151-.027-.24-.044-.933-.152-3.111-.25-7.316-2.474.16-.178.249-.373.249-.57 0-.302-.302-.622-.622-.871.373-.258.595-.552.595-.863 0-.614-.498-1.201-1.582-1.548.222-1.335.996-3.808 3.396-7.029a20 20 0 0 0 2.195-.516c-1.28 2.109-1.715 3.426-1.849 4.707q-.023.267-.062.534c-.027.195-.009.364.018.525-.418.302-.64.702-.64 1.12 0 .134.089.25.231.339-.231.15-.249.4-.24.533 0 .036 0 .08.009.116-.542 1.077-.178 2.883-.178 2.883.009.009.534.275 1.44.427.898.15 1.76-.08 1.77-.08.017 0 .026-.018.026-.036v-.196c.382.125 2.96 1.192 4.116 1.157.08 0 .15-.009.222-.018.898-.16 2.72-1.219 3.191-1.601.09-.072.16-.134.223-.178.089-.072.124-.143.106-.223-.062-.249-1.138-.445-1.529-.507-.044 0-.098-.018-.15-.018-.588-.08-2.774-.267-4.677-1.628a.57.57 0 0 0 .125-.373c-.018-.205-.09-.499-.294-.65.125-.142.187-.285.17-.427-.036-.365-.312-.756-.907-.979v-.07c-.027-1.193.097-3.488 2.275-7.1 1.227-1.015 2.196-2.34 2.65-3.657.515-1.512.248-3.052-.436-4.235-.116-.196-.33-.382-.507-.56v-.4c.542.097.987.168.987.16 0 0-.214-1.015-.01-1.842 0-.018 0-.027.01-.045.871 1.05 4.187 3.274 7.13 3.354.284.579.737.997 1.28.997.213 0 .64-.16.915-.294.169.17.356.285.56.258.231 0 .436-.267.631-.507.213.16.462.276.756.33.275.044.8.124 1.227.124 1.324 0 3.066-.071 3.342-.454.107-.151.249-.373.4-.551.284-.339.658-.748.8-1.041v.017a.5.5 0 0 0 .16-.115c.107-.151.249-.374.4-.552.32-.382.773-.863.845-1.165.026-.098.035-.338.044-.659.018-.018.036-.044.053-.062.32-.383.774-.863.845-1.166.035-.142.053-.604.035-1.13.125-.168.223-.32.25-.444.088-.365.061-2.865-.258-3.087zm-1.155.88q-.122.2-.205.454c-.089.32-.089.792-.035 1.059a1.7 1.7 0 0 0-.25.525 1.74 1.74 0 0 0-.053.756c-.293.196-.729.56-.889 1.13a1.6 1.6 0 0 0-.062.338c-.035 0-.07 0-.106.027a1.4 1.4 0 0 1-.214.133c-.293.178-.8.56-.978 1.192a2 2 0 0 0-.07.525 4 4 0 0 1-.979.48c-.008 0-.017 0-.017.018a4.4 4.4 0 0 1-.916-.987c1.351-1.077 4.338-3.79 4.347-6.682q.267.495.427 1.041zm-9.885 5.703c-.498-.898-.97-3.47-.81-4.368.338-.08.774-.107 1.298-.062.134 1.263.49 5.124 2.925 6.325a5.8 5.8 0 0 1-2.925-1.28c.018-.019-.47-.588-.489-.615m.462.605a7 7 0 0 1-.534-.507c.205.196.463.436.534.507m.133-5.018c.791.08 1.778.32 2.951.792v.027c0 .036.525 3.799 3.094 5.036a5.9 5.9 0 0 1-2.276.516c0-.027-.293 0-.32-.018-2.64-.979-3.307-5.036-3.458-6.353zm5.512 5.41c.302-.098.613-.223.915-.383q.043.322.151.552a.6.6 0 0 0-.106.062 4 4 0 0 0-.303.16 3.2 3.2 0 0 1-.657-.391m3.049-8.23c.062 2.874-2.765 5.997-4.116 7.082-.925-1.415-1.093-3.14-1.111-3.372.186-.169 1.867-1.512 2.791-3.025.64-1.04.898-1.832.489-2.518a6 6 0 0 1 1.938 1.833zm-4.925-2.651c.889 0 1.724.196 2.489.552.213.329.311.765.276 1.245-1.992-1.557-3.867-1.486-4.934-1.37a5.9 5.9 0 0 1 2.178-.418zm-2.89.756c1.005-.116 3.468-.534 5.628 1.157-.053.436-.222.898-.507 1.37-.053.08-.106.169-.16.249-1.938-.899-4.97-1.566-7.21-.534a6.05 6.05 0 0 1 2.25-2.242m-3.03 5.16c0-.907.204-1.761.568-2.526 2.214-.97 5.476-.65 7.37.222-.747 1.059-1.84 1.94-2.374 2.34-3.04-1.264-5.085-.828-5.556-.027zm.008.17s.036-.01.045-.027c.089-.214.329-.4.72-.508-.151.89 0 2.919.427 3.942a5.9 5.9 0 0 1-1.192-3.399zm-3.378-3.355c1.147-.507 2.454-1.085 2.632-.97v.018c0 .73-2 5.258-2.516 5.338-.471.072-2.267-.382-2.89-.551 0-.151-.017-.294-.061-.418-.143-.445-.392-.721-.792-.97.018-.009.036-.027.054-.036.587-.418 1.084-.943 1.395-1.485a49 49 0 0 0 2.17-.926zm-12.534 4.066c-.702.062-2.676-.071-3.725-.863q-.614-.467-.693-1.12c0-.054-.009-.099-.009-.152 0 0 .009 0 .018-.01 0-.008 0-.097-.018-.186q.013-.385.213-.596c.338-.383 1.094-.196 1.965-.196.391 0 .791 0 1.209-.017 1.725-.107 3.147-1.193 4.65-2.154.195-.124.382-.249.586-.373a6 6 0 0 1 .942-.463.76.76 0 0 0 0 .525c.134.4.623.819 1.174.819.222 0 .453-.036.684-.116.391-.133.907-.418 1.12-.703.214-.276.311-.73.24-1.014.676.071 1.236.267 1.52.631 0 0 .632.721.454 1.816-.125.81-.65 1.547-1.547 2.197-1.334.96-2.845 1.486-3.351 1.646 0-.018 0-.036-.01-.045 0 0-.044.027-.115.09a.3.3 0 0 0-.053.017c-.027 0-.036.036-.036.053-.498.4-1.831 1.397-3.067 1.37-.71-.017-1.244-.222-1.59-.604-.454-.507-.508-1.21-.508-1.175 0 .018-.053.294-.017.632zm-4.525.498s-.08.018-.097.036-.267.24-.418.525q-.091.053-.196.106c-.133-.337-.178-.907-.044-1.405.097-.347.31-.774.782-.961.169.24.382.463.622.632.356.249.818.409 1.298.507-.178 0-.364.035-.542.133a10 10 0 0 1-.453.24c-.116.063-.49.232-.996.49 0-.143.027-.214.027-.214.008-.026.035-.08.008-.089zm-.142.232s0 .089-.009.142l-.115.062c.044-.089.089-.16.124-.204m12.437-8.693s.07.036.062.054c-.071.249-.196.41-.33.41-.204 0-.373-.357-.373-.784s.17-.783.374-.783.373.356.373.783c0 .018-.07.062-.106.09-.08.053-.116.088-.125.124 0 .062.062.098.116.124zm-.267.641c.16 0 .489-.231.489-.64 0-.063-.285-.09-.276-.116 0-.018.294-.125.294-.16 0-.472-.258-.899-.507-.899-.151 0-.302.142-.391.356.017-.258.026-.525.035-.792.098-.116.214-.187.338-.187.382 0 .685.632.685 1.406 0 .507-.134.952-.33 1.201a1.7 1.7 0 0 0-.817-.142 3 3 0 0 1-.107-.232c.045-.169.071-.347.107-.533.062.391.267.73.471.73zm-.374.187c.507 0 .925.151 1.04.507.08.24.018.516-.186.783-.205.267-.525.48-.898.605-.764.258-1.529.053-1.698-.463-.08-.24-.018-.516.187-.783.204-.267.524-.427.898-.551.222-.072.444-.107.657-.107zm-1.813.658c-.035.054-.071.098-.098.151-.4.143-.764.32-1.084.517l-.587.373c-1.493.952-2.898 1.913-4.596 2.02q-.426.026-.827.026c-.053-.035-1.449-1.192-2.24-4.261-.515-1.984.125-4.324 1.414-5.223.889-.614 1.982-.507 3.147.32.648.463 1.413 1.558 2.213 2.714.951 1.361 1.92 2.758 2.8 3.22a1 1 0 0 0-.133.143zm4.836-1.744c.782-1.112 2.098-2.784 3.405-4.306 1.955-2.277 2.649-3.024 2.738-2.971.204.311-.854 6.067-1.627 8.452-.24.738-.356.836-.382.845-.498.187-2.4 1.521-3.636 2.393.026-.08.044-.169.053-.249.178-1.139-.569-2.028-.596-2.073a1.3 1.3 0 0 0-.488-.373c.195-.32.417-1.077.524-1.718zm-.64 1.664c-.347-.142-.782-.222-1.262-.249a.8.8 0 0 0-.25-.25c.178-.266.303-.693.303-1.165 0-.81-.4-1.583-.818-1.583a.54.54 0 0 0-.338.142 33 33 0 0 0 0-1.326c0-.489 0-.916.018-1.156.044-.41.302-.694.667-.756.347-.054.933.115 1.218.765 0 .018.017.027.035.027v.044a7.66 7.66 0 0 1 .836 3.479c0 .667-.267 1.468-.418 2.037zM66.307 7.74c.525-.551.996-.516 1.591-.48.276.018.596.035.943 0 .337-.045.657-.125.942-.205.675-.178 1.076-.258 1.227.16.062.17.026.374-.098.605-.311.579-1.165 1.228-1.823 1.38-.48.106-.737 0-.897-.063 0-.027-.151-.071-.178-.08-.276-.142-.871-.747-.898-.73-.018.018.373.623.729.89-.053.027-.098.018-.116.09-.097.63 1.156 2.036 1.672 2.588-.223.098-.41.16-.534.187-1.724-1.77-3.316-3.55-2.578-4.333zm-8.72.934c.417-.631.888-.685 1.484-.747a4.4 4.4 0 0 0 .925-.169c.328-.098.63-.24.897-.356.64-.293 1.014-.445 1.236-.053q.134.227 0 .614c-.213.622-.942 1.405-1.565 1.663-.453.187-.728.125-.897.09 0-.027-.16-.045-.187-.054-.293-.098-.987-.587-1.005-.57s.48.552.871.757c-.044.035-.097.035-.097.107.009.578 1.218 1.592 1.893 2.117-.106.035-.222.071-.329.124-.07.036-.142.08-.204.125-1.903-1.388-3.61-2.794-3.032-3.648zm.275 11.433c0-1.85.667-3.559 1.796-4.93-.027 1.94.515 4.058.533 4.058h.009c.027 0-1.262-5.454.836-6.53 2.56-1.308 7.36 4.154 7.387 4.146.017-.01-2.436-3.15-4.88-4.378a9.4 9.4 0 0 1 3.11-.534c.712 0 1.423.08 2.108.24h.097c.01 0 .018.018.027.027a.1.1 0 0 0 .036.018c.008 0 .026 0 .035-.018a.1.1 0 0 0 .018-.035c.48-.062 1.547-.374 2.133-.925.116.685-.186.943-.39 1.112q-.067.054-.107.098c-.303.195-.685.266-.685.293s.551-.036.889-.231c.338-.027 1.102-.116 1.494-.418.088.507-.49 1.138-.498 1.138l-.054.036c-.302.125-.542.16-.542.16s.293.045.533-.026c.543.329.774.569 1.174.96a4.6 4.6 0 0 0-.978 2.073c0 .027.036.018.044-.009.267-1.459 1.36-2.268 2.17-2.135.72.116 1.368 1.023 1.297 3.123-.168-.49-.4-.96-.684-1.406-.302-.703-1.058-.818-1.44-.765-.41.062-.711.57-.756 1.023-.026.24.036.881.036 1.406 0 1.281.035 3.052-.427 3.772-.053.018-.107.027-.16.045a3.4 3.4 0 0 0-.613.284c-.89-.124-1.903-1.468-2.97-3.007-.808-1.165-1.484-2.446-2.15-2.918-1.52-1.076-3.005-.916-3.654-.471-1.325.916-2.152 3.63-1.627 5.658.684 2.678 2.107 3.915 2.516 4.235h-.196c-.933 0-1.965-.187-2.338.222-.089.098-.16.214-.222.347-1.885-1.521-2.907-3.407-2.907-5.765zm-5.111 7.918c-.934-.445-7.948-8.763-8.517-10.374-.044-.124-.035-.169-.035-.178.267-.142 3.867 1.86 7.36 3.8 3.005 1.672 6.419 3.567 8.952 4.821l.169.143a2 2 0 0 0 0 .311c.027.25.151.56.347.863-.463.196-.898.632-1.032 1.139a2 2 0 0 0-.053.462c-1.004-.062-5.903-.373-7.183-.978zm.053 5.836c-.311.116-1.831-.631-3.858-1.913-1.831-1.156-3.432-2.33-3.636-2.669-.009-.017 0-.026 0-.026.169-.294 3.253-.232 6.231-.178 2.516.053 5.334.107 7.521 0 .391.018.694.035.871.044.01.303.08.614.17.881-.979.552-2.134 1.308-2.997 2.18a202 202 0 0 1-4.302 1.681m3.618 1.281c-.489-2.028 2-3.692 3.2-4.493.214-.142 1.796-1.103 2.338-1.387.178-.09.329-.178.462-.24q.254-.134.507-.134c.311 0 .48.089.622.302.222.338.276.623-.222 1.015-.32.258-.773.48-1.253.81-1.698 1.174-4.303 2.588-3.583 3.87.33.587 1.04 1.031 1.387 1.227.133.08.329.427.213.836-.15.508-.675.632-.675.632-.756.098-2.703-1.245-2.987-2.429zm7.663-2.206s-.56-.997-.56-1.584c0-.373.115-.57.186-.658-.062.57.231 1.272 1.387 1.886-.338.17-.658.33-.996.525-.96.56-1.893 1.46-2.666 2.518a1.1 1.1 0 0 0-.427-.56c-.48-.303-1.28-.294-1.894-.027a2 2 0 0 1-.23-.339c-.427-.782 1.333-1.983 2.835-3.007.853.837 2.285 1.317 2.302 1.317.018 0 .072.027.08.009.01-.018-.017-.062-.017-.08m-2.09 2.58a4 4 0 0 0-.142.436.4.4 0 0 0-.15-.027c.097-.142.195-.275.293-.409m-3.297 3.683s-.045-.053-.072-.089c.667.116 1.423-.267 1.414-.284-.009-.027-1.111.391-1.68-.116-.382-.338-.596-.827-.551-1.406.595.4 1.19.667 1.546.667h.072c.48-.062.87-.426 1.03-.978.134-.454.072-.88-.16-1.077a2 2 0 0 0-.364-.23c-.195-.117-.418-.241-.63-.437.56-.231 1.093-.116 1.555.107.266.133.409.4.48.703v.018c0 .017 0 .026.018.035.124.64-.054 1.415-.054 1.415.018 0 .267-.712.231-1.397.098.009.17.035.223.089.586.605.382 1.761-.463 2.58-.844.818-2 .996-2.587.4zm1.03.614s-.017 0-.026-.009h.018v.01zm-.355.943c-.275-.276-.533-.534-.693-.65-.018-.017-.036-.026-.027-.044 0-.044.107-.124.338-.178.276-.062.605-.044.862.08.09.107.231.232.418.339-.044.16.142.684.151.676.018-.018.018-.41.027-.525.053.409.551.516.56.49 0-.028-.373-.126-.391-.49.177.062.382.115.622.142 0 0 .658.062.08-.08-.711-.178-1.12-.552-1.298-.774a2.9 2.9 0 0 0 1.396-.738c.39-.383.675-.89.809-1.388.284.658.578 2.277.595 2.704v.072c.018.409.036.765-.24.89-.337.15-2.133.364-2.435.168-.17-.116-.471-.418-.765-.703zm-2.169 3.692v-.026c0-.187 1.92-1.46 2.543-1.958.053.107.115.214.177.312.116.169.258.329.418.48-.275.116-2.951 1.38-3.138 1.192m2.952-1.726a2.4 2.4 0 0 1-.25-.471 1.3 1.3 0 0 0-.097-.285 3 3 0 0 1-.098-.587c.125.116.231.205.311.258.107.071.338.098.631.098.151 0 .311 0 .49-.027q.159.225.346.436c.649.703 1.582 1.148 2.64 1.397-.187.169-.356.33-.507.472-1.493-.018-2.818-.356-3.458-1.3zM71 57.802c.089.018.169.027.24.045.693.124 1.511.48 1.573.783q.027.12-.133.24c-.098.071-.222.16-.365.276-.755.578-2.15 1.85-3.573 1.85-2.774 0-4.81-1.005-6.916-1.761h-.045c-.017.009-.169-.09-.169-.071l.045.453c-.258.01-1.325.178-2.587-.08-1.28-.258-1.787-.676-1.867-.747-.026-.213-.249-2.197.516-3.701.507.854 1.973 1.112 3.413 1.112 1.254 0 2.48-.383 3.13-.898 3.982 2.064 5.849 2.366 6.755 2.517zm-6.819-5.142c0 .667-1.075 1.433-2.115 1.646-1.04.214.053.044.062.044.72-.115 1.396-.346 1.867-.649.258.187.32.312.32.57 0 .818-1.431 1.485-3.192 1.485-1.76 0-3.19-.667-3.19-1.486 0-.222.106-.427.301-.622.507.284 1.067.489 1.076.471.009-.026-1.44-.836-1.44-1.343 0-.587.693-1.103 1.698-1.361-.045.702.044 1.254.275 1.503.338.374 1.032.374 1.032.374.87 0 2.124-.338 2.16-1.352 0-.116.017-.25.035-.41.694.25 1.12.65 1.12 1.13zm2.25-8.888c-3.343 3.87-3.743 7.073-3.779 8.105-.035.934-.87 1.006-1.697 1.014-.338 0-.587-.088-.747-.275-.267-.312-.187-1.193-.027-2.189.25-1.566 1.947-3.941 3.583-6.023.586-.747 1.6-1.646 2.204-1.646h.054a.53.53 0 0 1 .48.32c.106.223.08.516-.063.694zm8.462 9.547c.054 0 .107.017.151.017.436.063.96.267 1.005.463.009.053-.018.107-.08.151-.062.045-.133.107-.222.178-.463.374-1.316 1.21-2.214 1.228-1.742.053-3.129-.863-4.471-1.3h-.027s-.106-.052-.106-.043l.124.613c-.16.018-.827.134-1.627 0-.809-.133-1.138-.391-1.191-.436-.018-.124-.187-1.245.187-2.18.462.41 1.422.472 2.258.392.684-.062 1.35-.311 1.75-.623 2.659 1.29 3.877 1.45 4.463 1.53zm-5.085-3.87v-.01c.338.125.56.33.578.588.036.418-.586.96-1.226 1.156s.035.027.035.027c.445-.116.853-.303 1.13-.516.168.107.221.178.23.338.045.516-.809 1.014-1.911 1.121s-2.036-.222-2.089-.738a.53.53 0 0 1 .115-.365c.498.187 1.165.24 1.174.231 0-.018-1.387-.48-1.422-.8-.027-.25.16-.499.47-.703.125.275.312.489.445.631.223.25.57.285.916.285h.026c.552 0 1.485-.17 1.52-1.237zm-.373-.579v.436c-.027.934-.64 1.068-1.271.988-.676-.09-1.022-.659-.933-1.362.017-.178.044-.355.062-.533.142-1.326.56-2.625 1.964-4.894.214-.07.4-.142.552-.204a8 8 0 0 0 1.537-.837c-1.769 3.194-1.946 5.294-1.92 6.406zm.347-6.023a7 7 0 0 1-.676.24c-.017 0-.044 0-.053.018a.1.1 0 0 0-.053.018h-.018l-.16.053c-.134.045-.276.08-.427.125a6.6 6.6 0 0 1-1.467.213c.045-.391-.124-1.094-.79-1.192-.4-.062-1.059.4-1.672.916-1.111-.311-2.098-.854-2.791-1.592.453-.062.87-.142 1.004-.205.347-.151.329-.56.311-.987v-.071c0-.045-.009-.116-.017-.196 1.2 1.281 3.146 2.117 5.333 2.117 1.698 0 3.37-.694 4.605-1.654a8.4 8.4 0 0 1-3.13 2.188zm4.551-4.626a7 7 0 0 1-1.058 1.975c-1.226 1.085-3.004 1.717-4.889 1.717-2.311 0-4.347-.943-5.493-2.358-.116-.88-.33-2.135-.578-2.402.035-.454-.054-.863-.312-1.13 0 0-.017-.018-.026-.018.071-.355.178-.65.338-.854.017-.026.293-.347.275-.365.294-.346.596-.667.89-.943-.214.427-.374 1.166-.374 1.798 0 2.65 2.764 4.804 6.17 4.804 1.981 0 3.946-1.068 5.102-2.331a.5.5 0 0 1-.036.107zm.063-.187s0-.01-.01-.01c-.017-.017-.053-.017-.07 0-1.138 1.246-2.987 1.994-4.96 1.994-3.343 0-6.063-2.109-6.063-4.698 0-.72.133-1.28.382-1.619 0 0 .035-.044.062-.098.142-.116.284-.231.418-.329q.44-.307.906-.56c-.32.48-.568 1.343-.48 2.1.267 2.126 2.356 3.558 5.2 3.558 1.974 0 4.294-1.094 4.837-2.75a5.6 5.6 0 0 1-.214 2.403zm-.303-3.96c.231.401.391.846.48 1.309-.39 1.717-2.631 2.615-4.649 2.615-2.791 0-4.836-1.397-5.094-3.46-.097-.766.018-1.353.347-1.807 0-.009.044-.035.08-.07 0 0 .009 0 .018.008.32.16.693.223 1.058.24.08.178.275.605.337.801.276.898.827 1.61 3.343 1.61h.24c1.449-.035 2.614-.293 3.182-.898.214-.232.312-.436.347-.792.116.142.213.293.302.454zm-5.973-1.512s-.49-.178-.685-.471a1 1 0 0 1-.16-.418c.205.249.729.89 1.787 1.29.364.142.782.187 1.173.187.756 0 1.778-.232 1.823-.24.017 0 .035-.027.035-.045s-.009-.045-.035-.054c0 0-.783-.24-1.085-.578a2 2 0 0 1-.364-.587c.249.196.853.783 1.609 1.05.31.107.817.222 1.306.32 0 .445-.017.827-.31 1.13-.552.578-1.548.89-2.961.925-2.667.063-2.97-.943-3.245-1.833a15 15 0 0 0-.106-.338c.666-.053 1.209-.231 1.209-.24.017 0 .044-.026.044-.044s-.018-.045-.035-.054m6.498-3.051s0-.018-.01-.027l.028.027zm-.222-.48s-.045-.01-.063 0a.06.06 0 0 0-.009.062c.25.444.32 1.601.125 2.402-.178.702-.098 1.12-.107 1.308-.275-.027-1.44-.258-2.08-.48a7.2 7.2 0 0 1-1.698-.864c-.018-.018-.035-.08-.062-.062-.018.009-.027.089-.027.107 0 .017-.044.31.24.8.16.276.196.258.285.347-.4.09-1.05.205-1.903-.115-1.36-.525-1.83-1.06-1.84-1.068-.009-.018-.035-.062-.053-.053-.018 0-.036.053-.045.07 0 .019-.115.454.098.775.125.187.134.187.214.258-.338.08-1.227.293-2.152-.16-1.51-.739-1.484-1.655-1.484-1.664 0-.018.053-.214.035-.223-.018-.008-.124.045-.142.054-.009 0-.435.383-.435 1.014 0 .463.088.65.15.828a3.6 3.6 0 0 1-1.475-.863c.071-.045.133-.09.195-.134.48-.33.934-.64 1.254-.899.542-.427.684-1.032.418-1.414a.94.94 0 0 0-.48-.356c.675.107 1.35.116 1.831.116.151 0 .284 0 .391-.018.036.267.125.56.32.783.365.4.925.623 1.663.64h.16c1.413 0 2.177-.765 3.11-1.699.16-.027 1.992-.32 3.548-1.37.355.24.47.498.613.934.178.543-.08 1.166-.187 1.38-.08-.108-.24-.321-.426-.446zm.435 2.099a3.1 3.1 0 0 0-.098-1.317c.08.062.17.134.267.205.009.018.018.026.018.026 1.475 1.024 4.56 2.109 6.347 2.109.16 0 .302 0 .436-.018a3.4 3.4 0 0 0-.054 2.162c-2.596-.231-6.205-2.25-6.925-3.158zm9.814 4.2c-.427 0-1.236-1.264-1.262-1.255-.018 0 .204.658.56 1.13a1.24 1.24 0 0 1-.56.133c-.871 0-1.582-.907-1.582-2.028 0-.748.248-1.344.684-1.682.187.25.391.48.613.703.027.018.045.044.072.062 0 .08 0 .17.026.267.071.276.151.72.151.72l.045-.782c.284.24.586.462.906.65.134.693.41 1.414.916 1.85a.85.85 0 0 1-.569.24zm7.005-2.02c-.071.275-.391.658-.711 1.032a8 8 0 0 0-.4.498c-.32.436-3.103.694-4.312.49-.95-.161-1.306-.855-1.493-1.86a6.24 6.24 0 0 0 2.694.623c.666 0 1.306-.107 1.902-.303-.133.267-.071.472-.053.472.026 0 .364-.935 1.173-1.104.089.143.169.214.178.214s-.071-.142-.142-.383v-.098h-.01c-.062-.266-.08-.622.045-1.076.169-.587.41-.739.702-.916.072-.045.143-.09.223-.143.026-.018.035-.009.044 0 .24.17.293 2.136.187 2.554zm1.37-1.7c-.072.276-.392.659-.712 1.032a8 8 0 0 0-.4.499c.018-.383.018-1.024-.027-1.602.063.08.107.125.116.116.009 0-.071-.134-.133-.356a4 4 0 0 0-.08-.543c0-.187.017-.409.088-.65.17-.586.41-.738.703-.916q.103-.064.222-.142c.026-.018.035-.009.044 0 .24.17.294 2.135.187 2.553zm.941-1.886c-.062.267-.373.64-.684 1.006-.009-.846-.098-1.913-.302-2.056a.13.13 0 0 0-.16 0c-.027.018-.063.036-.09.063q.015-.23.08-.499c.17-.587.41-.738.703-.916.071-.044.142-.089.222-.142.027-.018.036-.01.045 0 .24.169.293 2.135.186 2.553zm.285-1.583s-.027.08-.045.124c-.035-.694-.124-1.379-.284-1.486a.13.13 0 0 0-.16 0 1.4 1.4 0 0 1-.213.134 2.8 2.8 0 0 0-.534.427c0-.205.018-.436.09-.694.07-.258.16-.427.257-.56.124-.17.275-.259.435-.356a8 8 0 0 0 .223-.143c.026-.018.035-.009.044 0 .24.17.293 2.135.187 2.554"/><path fill="#231815" d="M94.362 50.685a8.6 8.6 0 0 0-.32-1.637 7 7 0 0 0-.515-1.263 8.8 8.8 0 0 0-1.21-1.762c-.124-.142-.266-.285-.4-.427-.017-.018-.035-.044-.052-.062a10.5 10.5 0 0 0-1.752-1.575 12.7 12.7 0 0 0-2.249-1.272 15 15 0 0 0-1.636-.605l-.186-.053a1.05 1.05 0 0 0-1.21.48c-.221.383-.177.863.116 1.201.276.33.605.605.898.916q-.586.042-1.173.152a10 10 0 0 0-1.271-1.175c-.64-.49-1.343-.89-2.08-1.219-.712-.32-1.458-.57-2.223-.765a15.5 15.5 0 0 0-4.142-.525h-.054c-.88.01-1.36 1.032-.818 1.717a24 24 0 0 0 1.093 1.281c.099.107.196.214.294.312.053.062.107.116.16.178.071.08.151.16.231.24a9 9 0 0 0-1.093-.044c-.373 0-.747.026-1.12.062-.463.053-.916.124-1.37.231-.453.107-.888.24-1.324.418-.222-.258-.444-.355-.782-.355H64.52a1.02 1.02 0 0 0-1.004.81q-.066.32-.142.64c-.09.427-.018.72.284 1.032.151.16.302.329.453.489.223.24.445.347.765.365h.026c.018 0 .036 0 .063.009a1 1 0 0 1 .142.044v.16c0 .08 0 .17-.018.25a1.6 1.6 0 0 1-.053.284c-.213.997-.436 1.993-.658 2.99-1.022-2.011-2.053-4.013-3.076-6.024a.9.9 0 0 0-.169-.24c-.15-.16-.302-.33-.453-.49a.97.97 0 0 0-.782-.337H38.66a9.4 9.4 0 0 0-1.485-1.93c-.293-.339-.604-.65-.933-.953a14.5 14.5 0 0 0-1.725-1.325 18 18 0 0 0-1.92-1.104 29 29 0 0 0-1.84-.836c-.64-.267-1.29-.507-1.938-.747-.587-.223-1.165-.436-1.742-.676a17 17 0 0 1-1.68-.801 9 9 0 0 1-.89-.56 6 6 0 0 1-.506-.41c-.036-.027-.062-.062-.098-.089a.14.14 0 0 0-.036-.044 3 3 0 0 1-.31-.508q-.079-.187-.143-.373a2.6 2.6 0 0 1-.098-.525 3.6 3.6 0 0 1 .08-1.228 3.5 3.5 0 0 1 .205-.578q.106-.24.266-.454c.08-.107.17-.213.258-.302.17-.17.365-.32.56-.454a4.7 4.7 0 0 1 .978-.48 7 7 0 0 1 .8-.232q.282-.066.578-.107a9 9 0 0 1 .942-.08 8.3 8.3 0 0 1 1.876.17 9.3 9.3 0 0 1 1.938.622c.462.205.907.436 1.333.703.525.32 1.014.676 1.485 1.076.311.259.604.534.889.828.382.436.729.89 1.049 1.37.48.72.88 1.495 1.2 2.304.204.534.382 1.077.507 1.637.088.383.15.774.195 1.166.036.276.053.551.062.827a.96.96 0 0 0 .294.712c.15.16.302.33.453.49.56.604 1.565.39 1.84-.383a15.8 15.8 0 0 0 .756-3.123 15.7 15.7 0 0 0-.205-5.418 15 15 0 0 0-.56-1.958 14 14 0 0 0-.657-1.52 14.5 14.5 0 0 0-1.618-2.483q-.466-.574-.987-1.121a17.4 17.4 0 0 0-1.84-1.78 22.4 22.4 0 0 0-2.747-1.975 22 22 0 0 0-1.547-.871 29 29 0 0 0-2-.935 22 22 0 0 0-2.72-.925c-1.023-.294-1.787.952-1.058 1.735.151.16.302.33.453.49.036.035.071.062.107.097.044.036.089.071.133.116.516.427 1.014.863 1.503 1.325.195.187.39.383.586.579a19 19 0 0 0-4.089.249 14.5 14.5 0 0 0-2.089.498 14 14 0 0 0-2.018.8 14.62 14.62 0 0 0-6.791 6.851c.035-.667.062-1.325.097-1.993a1 1 0 0 0-.293-.8c-.151-.16-.302-.33-.453-.49a1.085 1.085 0 0 0-1.76.232L5.52 40.258c-.213.4-.15.88.16 1.219.152.16.303.329.454.49a1 1 0 0 0 .702.337 27 27 0 0 0-.498 2.5c-.053.383-.106.756-.15 1.14-.036.328-.072.648-.09.978q-.053.668-.053 1.334a17.6 17.6 0 0 0 .168 2.58c.08.516.179 1.023.32 1.53.063.223.125.445.205.668.062.178.125.365.205.543.098.24.204.48.31.711.232.472.49.934.774 1.37a13.7 13.7 0 0 0 1.698 2.1q.226.252.454.49c.337.346.693.684 1.057.996a17.5 17.5 0 0 0 2.445 1.752 18 18 0 0 0 3.085 1.468 19 19 0 0 0 2.329.686c1.244.275 2.515.435 3.787.471a21 21 0 0 0 3.742-.222 19 19 0 0 0 3.432-.837 15.6 15.6 0 0 0 3.182-1.521c.409-.267.809-.552 1.191-.854a1 1 0 0 0 .17.258c.15.16.301.329.452.49a.88.88 0 0 0 .712.31h7.494c.4 0 .746-.275.826-.667.018-.098.045-.195.062-.284q.054.078.107.142c.151.16.302.33.453.49a.91.91 0 0 0 .738.32h4.97l-6.916 6.334a1.09 1.09 0 0 0-.063 1.548c.151.17.303.33.454.49.337.364.64.444 1.12.302 3.893-1.183 7.787-2.358 11.68-3.541.987-.303 1.032-1.69.063-2.046a49 49 0 0 1 3.342-1.103c.64-.187 1.28-.374 1.93-.534a36 36 0 0 1 4.355-.872 34 34 0 0 1 1.671-.17 33 33 0 0 1 1.618-.062c.347 0 .703 0 1.05.018.426.018.853.036 1.28.072.337.026.666.062.995.097.302.036.596.08.898.134q.749.118 1.484.329c.418.116.836.258 1.236.436.204.089.4.178.596.285q.37.202.729.418c.595.365 1.164.774 1.76 1.139.195.115.39.23.595.347a11 11 0 0 0 3.992 1.254c.613.071 1.235.098 1.858.071a9.4 9.4 0 0 0 1.324-.151 7 7 0 0 0 1.271-.374c.294-.115.57-.258.845-.418.178-.107.355-.222.515-.356.294-.222.56-.471.81-.738q.413-.44.746-.934c.222-.32.418-.659.605-.997.177-.338.337-.694.48-1.05.142-.364.257-.738.346-1.112a7 7 0 0 0 .16-2.322 6.4 6.4 0 0 0-.195-1.076 5.2 5.2 0 0 0-.631-1.433c.604.436 1.458.116 1.644-.605.018-.062.027-.124.045-.186a11 11 0 0 0 .266-3.693zm-65.569 2.616a4.52 4.52 0 0 1-3.556 2.998A12.34 12.34 0 0 1 15.3 52.98c-2.454-2.58-3.85-6.183-3.938-9.715.622.685 1.76.276 1.804-.65l.16-3.282c.534 1.69 1.36 3.025 2.65 4.235a10 10 0 0 0 2.222 1.77 18 18 0 0 0 1.956.988c.417.187.844.347 1.28.507.169.062.337.115.515.178.142.044.294.097.445.142.089.027.186.053.284.089.134.036.267.08.4.116q.36.103.72.222c.418.134.836.285 1.245.445a17 17 0 0 1 2.009.934c.204.116.418.231.613.365.107.08.214.16.32.249a4.03 4.03 0 0 1 .818 3.746zm17.761 3.968a1.7 1.7 0 0 1-.106.364l-.053.107c-.018 0-.036.018-.054.018a1 1 0 0 1-.151.044 3.6 3.6 0 0 1-.756.089h-.249c-.497 0-.924.347-1.03.828 0 .035-.019.08-.027.115a1 1 0 0 0-.107-.133c-.151-.16-.302-.33-.453-.49-.214-.222-.427-.32-.73-.32h-.142v-.017c.676-3.105 1.36-6.21 2.036-9.324h.481c0 .018.017.035.017.062.027.08.062.16.089.24.026.072.053.143.071.223.044.142.08.275.115.418a6 6 0 0 1 .134.676c0 .045.009.098.018.142a.87.87 0 0 0 .24.516c.15.16.302.33.453.49a.83.83 0 0 0 .676.293h.737c-.408 1.877-.817 3.764-1.235 5.64zm9.157-8.497c-.462 2.109-.916 4.208-1.378 6.317-.098.463-.213.925-.365 1.37a8 8 0 0 1-.24.632c-.035.08-.08.16-.115.24l-.08.133a.2.2 0 0 1-.062.072 1 1 0 0 1-.338.196 3.4 3.4 0 0 1-.587.16c-.053 0-.107 0-.16-.018l2.027-9.28c.462-.204.836-.213 1.298-.017zm5.156 9.876c-.498.142-1.005.284-1.503.444a.95.95 0 0 0-.222-.39 20 20 0 0 0-.418-.464.92.92 0 0 0-.755-.338h-.09a.7.7 0 0 1-.186-.026.2.2 0 0 1-.062-.018v-.267c0-.071.018-.142.035-.214q.497-2.24.978-4.492c.951 1.859 1.903 3.727 2.854 5.587a15 15 0 0 0-.64.178zm12.925-6.255a.93.93 0 0 0-.898.72l-.213.962c-.08.382 0 .631.275.898l.48.454a.84.84 0 0 0 .632.258h.293c-.124.552-.24 1.103-.365 1.655a19 19 0 0 0-1.733-.17l-.702-.026a.7.7 0 0 1-.036-.142 7 7 0 0 1-.115-.854c0-.107-.01-.214-.018-.32v-.837c0-.365.026-.738.062-1.103a12 12 0 0 1 .258-1.557c.035-.151.08-.303.124-.454a9 9 0 0 1 .311-.898 6 6 0 0 1 .32-.676 6 6 0 0 1 .676-1.015 4 4 0 0 1 .32-.338q.176-.162.365-.311a2.4 2.4 0 0 1 .409-.25 2.22 2.22 0 0 1 1.556-.142c.07.018.132.045.195.072.062.026.124.062.186.097.027.018.063.036.09.054l.088.115c.045.063.09.125.125.187.035.063.08.125.115.196q.174.32.294.667c.08.214.133.445.177.668.054.266.08.542.08.81v.106c0 .462.16.712.596.898.044.09.107.17.178.24h-4.16zm12.765 7.331a1.7 1.7 0 0 1-.284.685 2 2 0 0 1-.222.258 2 2 0 0 1-.32.25 1.7 1.7 0 0 1-.391.168 2.5 2.5 0 0 1-.445.09c-.16.017-.32.017-.48.017-.213 0-.418-.018-.631-.053a4.2 4.2 0 0 1-.987-.25 5 5 0 0 1-.516-.222 9 9 0 0 1-.622-.347c-.23-.142-.453-.284-.684-.427-.294-.187-.578-.373-.88-.551-.187-.107-.374-.223-.56-.32.204-.962.418-1.913.63-2.874a2 2 0 0 1 .063-.232.3.3 0 0 1 .044-.097c.01 0 .018-.01.036-.018.018 0 .027-.01.044-.018a5.2 5.2 0 0 0 1.049.8c.205.125.418.232.632.33.186.089.373.16.56.24.222.089.444.17.657.258.312.116.632.231.952.347.23.08.453.169.684.258.133.053.267.098.391.151q.147.056.294.125c.15.071.31.142.453.222.089.045.178.098.258.16.071.09.124.187.169.294.035.08.07.169.098.258.017.071.026.151.035.222 0 .098 0 .196-.018.294zm4.952-5.623a4.5 4.5 0 0 0-.516-.489 5 5 0 0 0-.506-.365 7 7 0 0 0-.685-.382 14 14 0 0 0-.818-.374c-.346-.142-.693-.285-1.04-.418a58 58 0 0 0-1.138-.41 15 15 0 0 0-.586-.204 14 14 0 0 1-.543-.205 2.4 2.4 0 0 1-.346-.16q-.066-.04-.143-.08c-.035-.08-.07-.16-.097-.249a2 2 0 0 1-.045-.222c-.018-.098-.018-.196-.018-.294 0-.08.018-.169.036-.249 0-.036.018-.062.027-.098q.015-.053.044-.107c.009-.026.027-.044.036-.062a.7.7 0 0 1 .097-.124 1 1 0 0 1 .214-.16c.062-.036.124-.072.195-.099a1 1 0 0 1 .223-.08c.07-.026.15-.044.222-.062.124-.026.24-.053.364-.071.125-.018.25-.027.374-.036.364-.017.729.018 1.084.107.16.036.311.09.462.151.152.063.294.134.436.214.249.142.471.302.693.48.107.09.223.187.33.285.053.053.106.098.16.151.133.16.266.32.382.49a6 6 0 0 1 .986 2.117q.081.334.107.667c0 .063.009.125.018.187 0 .08.026.16.053.24-.018-.017-.035-.044-.053-.062z"/><path fill="#FFF100" d="M93.305 50.258a8 8 0 0 0-.303-1.521 7 7 0 0 0-.47-1.166 8 8 0 0 0-1.13-1.637 10.4 10.4 0 0 0-1.644-1.486 11.6 11.6 0 0 0-2.143-1.21 14 14 0 0 0-1.564-.578l-.187-.053c-.445-.134-.756.418-.418.738.045.045.098.09.142.134.33.311.65.622.952.943.24.258.462.525.693.8a9.6 9.6 0 0 0-2.702.205.2.2 0 0 0-.072.018 9.4 9.4 0 0 0-1.422-1.361 9.6 9.6 0 0 0-1.956-1.148 13 13 0 0 0-2.124-.73 15 15 0 0 0-3.983-.498h-.053a.447.447 0 0 0-.347.73c.01.017.027.026.036.044.32.41.667.81 1.022 1.192.276.294.551.588.845.872.435.418.889.819 1.378 1.184.16.115.32.23.489.338a10 10 0 0 0-.863-.312 9 9 0 0 0-1.075-.249 10 10 0 0 0-2.374-.089 10 10 0 0 0-2.445.49 8 8 0 0 0-1.004.418c0-.027.009-.045.018-.072a.422.422 0 0 0-.418-.516h-5.654a.42.42 0 0 0-.409.33q-.064.32-.142.64a.55.55 0 0 0 .498.667h-.053c.044 0 .097 0 .142.01.053.008.106.026.16.035.062.018.115.035.178.062s.124.045.186.071c.053.027.107.045.17.08.043.027.097.054.141.08a.4.4 0 0 1 .098.072c.027.018.044.035.071.062a.2.2 0 0 1 .045.062l.026.054c.01.026.018.062.027.089.018.062.027.124.036.195.017.116.017.24.017.356v.24c0 .08-.017.17-.026.25-.018.088-.027.186-.054.275-.355 1.646-.72 3.292-1.075 4.938-1.414-2.767-2.836-5.543-4.25-8.31-.088-.178-.204-.249-.4-.249h-21.84a7 7 0 0 0-.773-1.414 9 9 0 0 0-1.085-1.273 12 12 0 0 0-1.173-1.014 15 15 0 0 0-1.69-1.12 21 21 0 0 0-1.546-.81 26 26 0 0 0-1.538-.668c-.507-.204-1.013-.391-1.53-.587a100 100 0 0 1-1.564-.596 23 23 0 0 1-1.289-.56c-.63-.303-1.244-.64-1.804-1.06a7 7 0 0 1-.81-.702 4 4 0 0 1-.64-.836c-.088-.16-.16-.32-.213-.49a1.4 1.4 0 0 1-.08-.275 4.1 4.1 0 0 1 .036-2.073 3.4 3.4 0 0 1 1.04-1.682c.204-.178.427-.338.658-.471a5.4 5.4 0 0 1 1.182-.516 8.2 8.2 0 0 1 1.734-.338 9 9 0 0 1 3.422.383c.782.24 1.53.569 2.231.969a13.2 13.2 0 0 1 4.667 4.555 12.8 12.8 0 0 1 1.387 3.194 10.4 10.4 0 0 1 .4 2.642c.018.543.774.659.951.143.356-1.023.614-2.082.747-3.159q.118-.947.116-1.895.002-.947-.116-1.895a14 14 0 0 0-1.013-3.79 11 11 0 0 0-.578-1.183 15 15 0 0 0-.694-1.121 15 15 0 0 0-.844-1.103 17 17 0 0 0-.942-1.032 20.3 20.3 0 0 0-2.872-2.367 26 26 0 0 0-2.178-1.325 24 24 0 0 0-4.72-1.922 1 1 0 0 0-.169-.045c-.462-.133-.773.463-.4.774.045.036.089.072.133.116.525.436 1.04.89 1.53 1.352a30 30 0 0 1 2.124 2.251 18.3 18.3 0 0 0-5.485.107c-.675.116-1.351.267-2.009.48a13.4 13.4 0 0 0-1.929.766 14.02 14.02 0 0 0-6.596 6.752v.018a9.26 9.26 0 0 0 3.93 11.486c.364.213.728.41 1.11.596.187.089.365.178.552.258.195.089.4.178.604.258.213.089.436.169.658.258.107.044.222.08.329.116l.48.16c.115.035.222.07.338.107.053.017.115.035.169.053.115.035.222.071.337.098.205.062.41.115.614.178a26 26 0 0 1 2.062.756 16 16 0 0 1 2.231 1.148 4.64 4.64 0 0 1 1.805 5.097 5.11 5.11 0 0 1-4.054 3.417 12.9 12.9 0 0 1-11.414-4.529c-2.773-3.3-4.009-7.704-3.449-11.957l.853 1.895c.187.41.8.294.818-.16.205-4.084.41-8.167.605-12.242.027-.516-.667-.712-.907-.25L6.036 40.508c-.222.418.267.845.649.57.48-.347.96-.685 1.44-1.032-.258.702-.48 1.423-.676 2.152a27 27 0 0 0-.47 2.207 27 27 0 0 0-.259 1.877 20 20 0 0 0-.088 3.159c.035.524.088 1.04.177 1.556.09.517.205 1.032.365 1.53.178.561.391 1.104.658 1.62.284.56.613 1.094.978 1.601.364.507.773.988 1.208 1.442.88.916 1.867 1.726 2.934 2.41a17.8 17.8 0 0 0 6.223 2.5c.746.152 1.502.25 2.258.312.738.053 1.475.071 2.222.053a23 23 0 0 0 2.214-.186 20 20 0 0 0 2.053-.4 17 17 0 0 0 1.991-.633 14 14 0 0 0 1.858-.88 13 13 0 0 0 1.707-1.148 12.5 12.5 0 0 0 2.125-2.197c.462-.605.862-1.255 1.218-1.922.355-.676.657-1.37.906-2.09.134-.383.258-.775.365-1.166a13 13 0 0 0 .418-2.269 9.6 9.6 0 0 0-.018-2.02c.08-.017.169-.017.249-.026.097 0 .195-.01.293-.018.169 0 .347-.018.516-.018l-2.16 9.893c-.027.125-.054.25-.098.374a2 2 0 0 1-.09.205c-.017.026-.035.062-.053.089l-.053.08a.1.1 0 0 0-.027.035c-.017.018-.035.027-.053.045-.044.035-.098.053-.142.08-.053.018-.107.044-.16.053-.045.01-.08.027-.125.036a1 1 0 0 1-.16.035c-.08.018-.15.027-.23.036a3.4 3.4 0 0 1-.516.035h-.231a.37.37 0 0 0-.365.294l-.187.854a.364.364 0 0 0 .356.445h7.494c.142 0 .204-.053.24-.187.07-.311.133-.623.204-.934a.39.39 0 0 0-.382-.472h-.222c-.09 0-.187-.008-.276-.026a1 1 0 0 1-.16-.036c-.089-.017-.169-.044-.258-.07a1 1 0 0 1-.177-.072.42.42 0 0 1-.205-.151c-.009-.018-.018-.045-.027-.072v-.115c0-.053.01-.098.018-.151 0-.054.018-.098.027-.152.009-.062.027-.124.036-.187.017-.08.035-.15.053-.23.711-3.266 1.431-6.531 2.142-9.805h1.04c.071 0 .151 0 .223.018.026 0 .053.009.088.017a.8.8 0 0 1 .205.09q.093.053.16.133c.018.027.035.044.053.071l.08.16c.054.116.098.232.142.347l.08.214c.027.08.054.151.08.231.045.133.09.267.125.4l.107.41c.017.089.044.178.053.275.018.09.035.187.044.276 0 .045.01.098.018.143a.31.31 0 0 0 .311.275h.943c.16 0 .24-.062.275-.222.205-.943.41-1.877.614-2.82.142.035.293.08.426.133.08.036.16.071.231.116.018.009.036.027.054.044l.009.01s0 .017.008.017c.018.027.018.062.018.098v.115c0 .036 0 .063-.009.098 0 .054-.017.107-.026.16-.027.16-.062.312-.09.472-.63 2.883-1.261 5.765-1.884 8.648a5 5 0 0 1-.098.373 2 2 0 0 1-.088.205c-.018.027-.036.062-.054.089l-.053.08c0 .009-.018.018-.027.036-.018.018-.035.026-.053.044-.045.036-.089.053-.142.08-.054.018-.107.045-.16.054-.045.008-.08.026-.125.035a1 1 0 0 1-.16.036c-.08.018-.16.026-.231.035a3.4 3.4 0 0 1-.516.036h-.248a.45.45 0 0 0-.436.347c-.053.249-.107.507-.169.756-.053.25.133.49.391.49h7.53c-2.872 2.633-5.743 5.257-8.605 7.882-.383.347-.027.97.47.819 3.894-1.184 7.788-2.358 11.682-3.541.48-.143.426-.837-.063-.917-.649-.098-1.298-.204-1.947-.302.32-.143.65-.276.97-.41a50 50 0 0 1 4.462-1.539 45 45 0 0 1 1.556-.436 39 39 0 0 1 3.369-.756q1.613-.293 3.253-.4a28 28 0 0 1 5.165.16c.498.062.996.151 1.494.258.489.107.96.24 1.43.4.454.16.908.347 1.334.579.276.142.543.302.81.471.568.356 1.12.747 1.697 1.094.151.09.294.178.445.259.337.186.675.355 1.03.498q1.23.505 2.552.703a10.5 10.5 0 0 0 2.978.008 7 7 0 0 0 1.12-.266 5.5 5.5 0 0 0 1.04-.472 5.2 5.2 0 0 0 .854-.623 7.5 7.5 0 0 0 .72-.756c.222-.267.418-.56.604-.854a9 9 0 0 0 .49-.908c.15-.31.275-.622.39-.952.116-.329.205-.658.267-.996q.105-.52.115-1.04c.01-.33 0-.65-.044-.98a5 5 0 0 0-.187-.907 5 5 0 0 0-.346-.872 4.2 4.2 0 0 0-.534-.783 4.5 4.5 0 0 0-.515-.49 7 7 0 0 0-1.12-.684 10 10 0 0 0-.64-.294q-.428-.186-.854-.347c-.595-.231-1.2-.436-1.796-.65-.195-.07-.4-.142-.595-.222a4 4 0 0 1-.427-.187 3 3 0 0 1-.364-.204 1.5 1.5 0 0 1-.498-.507 2.15 2.15 0 0 1-.311-1.041c0-.116 0-.24.018-.356s.035-.222.07-.33a1.3 1.3 0 0 1 .267-.489c.098-.115.223-.213.356-.293.071-.045.151-.09.222-.125.17-.08.338-.142.516-.195q.36-.094.72-.134a4.5 4.5 0 0 1 1.413.09c.391.088.765.24 1.112.435.248.142.48.311.702.49.266.204.515.435.746.675.258.267.498.543.72.846.258.356.49.73.676 1.12.205.419.365.864.471 1.318.054.23.09.471.116.711 0 .063.009.125.018.187.044.507.755.56.88.062.017-.062.026-.124.044-.186a10.4 10.4 0 0 0 .249-3.497zm-40.937 8.23c-.07 0-.142-.018-.213-.036s-.133-.027-.205-.044c-.07-.018-.142-.027-.204-.045a1.7 1.7 0 0 1-.302-.098c-.027-.018-.054-.027-.09-.044l-.08-.054a.07.07 0 0 0-.017-.044.3.3 0 0 0-.018-.08v-.072c0-.088.018-.168.036-.249.711-3.238 1.413-6.468 2.124-9.706.09-.391.463-.498.774-.57.346-.08.667-.07 1.013 0 .703.17 1.28.65 1.111 1.45-.462 2.11-.915 4.209-1.377 6.318-.107.48-.223.96-.383 1.432-.08.231-.16.462-.266.694-.045.098-.09.187-.134.276-.035.062-.07.133-.115.195a2 2 0 0 1-.116.152 1.2 1.2 0 0 1-.231.187 2 2 0 0 1-.329.16c-.249.097-.507.16-.764.195-.072 0-.151 0-.223-.018zm8.659.747a55 55 0 0 0-2.356.72 49 49 0 0 0-4.267 1.638c-.533.23-1.058.48-1.582.73.293-.74.577-1.487.87-2.225h4.232c.142 0 .214-.053.24-.196.063-.276.116-.543.178-.818 0-.027.018-.063.018-.09a.413.413 0 0 0-.4-.498h-.09a1 1 0 0 1-.248-.026c-.08-.018-.169-.036-.249-.062-.035-.01-.071-.027-.107-.036-.035-.018-.07-.027-.106-.045s-.08-.035-.116-.053c-.018-.009-.044-.018-.062-.027s-.044-.017-.062-.035c-.018 0-.036-.018-.045-.027a.6.6 0 0 1-.133-.098c-.027-.027-.045-.062-.062-.089a.7.7 0 0 1-.071-.258v-.596c0-.053 0-.107.017-.169.01-.071.018-.133.036-.205.462-2.135.933-4.261 1.396-6.396 1.449 2.829 2.889 5.658 4.338 8.487q-.68.176-1.36.365zm4.756-1.05.346-1.584c.134.445.311.872.56 1.282.036.053.071.115.107.169zm14.605-11.192c.062.018.116.027.178.044.169.036.347.063.524.09-.053.044-.097.088-.15.133-.285.267-.552.56-.783.88.08-.382.151-.765.231-1.147m-6.596 6.005c-.178 0-.258.063-.302.24l-.214.961a.345.345 0 0 0 .33.418h.16q.226 0 .453.054c.115.026.222.071.329.115.08.036.16.063.24.107.044.027.089.045.133.071l.071.054s0 .018.009.026c0 .018 0 .036.009.054 0 .035 0 .062.009.098v.151c0 .142-.027.285-.062.427-.16.747-.33 1.504-.49 2.25a19 19 0 0 0-2.24-.248c-.453-.027-.897-.027-1.342-.027a4 4 0 0 1-.311-.623 3 3 0 0 1-.142-.48 6 6 0 0 1-.116-.916 8 8 0 0 1-.017-.472v-.845c.017-.765.106-1.53.257-2.287.071-.347.16-.703.267-1.04.107-.339.231-.677.373-.997a6.8 6.8 0 0 1 .871-1.468 4.5 4.5 0 0 1 .472-.525 3.7 3.7 0 0 1 .915-.667 2.77 2.77 0 0 1 1.645-.285c.195.027.382.071.56.142q.147.053.293.134c.09.053.187.107.267.169.204.142.373.32.533.516.054.071.107.133.151.205a2 2 0 0 1 .143.222c.088.151.177.311.248.48.072.16.143.33.196.499.089.258.151.525.196.8.044.276.07.543.07.819v.107c0 .204.17.373.374.373h.818v.143c.009.418.071.836.196 1.236h-5.388zm10.73 3.977c.169.062.346.133.515.205.071.026.142.062.214.089.24.106.48.213.71.347.125.07.25.15.365.24q.137.107.258.24.186.2.32.427c.089.151.16.32.214.49.026.106.053.222.062.329.009.133 0 .275-.01.409a2.3 2.3 0 0 1-.23.72 2.3 2.3 0 0 1-.65.783c-.168.134-.364.25-.568.33a3 3 0 0 1-.631.169 4 4 0 0 1-.65.044c-.213 0-.426-.018-.63-.035a6 6 0 0 1-.863-.17 4 4 0 0 1-.462-.16 6.5 6.5 0 0 1-.791-.382 12 12 0 0 1-.711-.427c-.32-.205-.64-.41-.96-.605a18 18 0 0 0-.987-.57 10 10 0 0 0-.702-.338l.773-3.523a2 2 0 0 1 .08-.293c.018-.063.044-.116.071-.178.018-.036.045-.072.062-.107.018-.027.027-.045.054-.062l.026-.027c.01-.009.027-.018.036-.027.027-.018.053-.026.08-.044.035-.018.062-.027.098-.045.07-.026.142-.053.222-.07.044 0 .08-.019.124-.019.045 0 .098-.018.143-.018.16.187.337.356.524.517.258.213.542.391.836.551.195.107.39.196.595.285.196.089.4.169.596.24.293.116.596.223.889.33.329.115.649.24.978.364z"/><path fill="#E60012" d="M92.309 48.238c-.516-1.218-1.405-2.277-2.454-3.105a11.2 11.2 0 0 0-2.515-1.485 12 12 0 0 0-1.431-.525c.337.311.666.631.977.97.41.444.791.916 1.183 1.378.097.116.195.232.302.348a8 8 0 0 0-.81-.098 9.6 9.6 0 0 0-2.933.169c-.115.026-.24.053-.355.089a9.6 9.6 0 0 0-1.538-1.522c-1.138-.872-2.507-1.432-3.912-1.797a14.5 14.5 0 0 0-3.849-.49c.365.463.756.908 1.165 1.344.693.739 1.431 1.433 2.267 2.01.39.268.809.517 1.244.704h-.435l-.56.507a8.4 8.4 0 0 0-1.6-.596c-.97-.258-1.992-.32-2.996-.24-1.058.08-2.098.32-3.058.756a7.3 7.3 0 0 0-2.134 1.459 8 8 0 0 0-1.227 1.584 9.4 9.4 0 0 0-.924 1.957c.142-.668.293-1.335.436-2.002a6.6 6.6 0 0 1 .462-1.423 2 2 0 0 1 .275-.48c.098-.117.214-.241.365-.339.142-.107.311-.196.453-.258s.25-.116.436-.16a3 3 0 0 1 .658-.098h.16c.053-.222.097-.445.15-.676h-5.537c-.054.222-.098.454-.143.676.214 0 .418.062.632.133.204.072.408.16.577.267q.24.147.374.32c.08.116.124.24.16.41.035.169.053.383.044.614 0 .231-.018.49-.098.827-.453 2.082-.906 4.164-1.369 6.246-1.618-3.168-3.235-6.326-4.853-9.493H37.736l-.08-.214c-1.013-2.642-3.885-4.51-6.64-5.73-1.37-.604-2.703-1.049-4.045-1.583-1.183-.471-2.365-1.023-3.378-1.833-.605-.48-1.156-1.058-1.476-1.761-.569-1.246-.453-2.892.285-4.048.87-1.38 2.613-2.055 4.284-2.251 1.69-.196 3.316.089 4.819.703 1.493.614 2.87 1.548 4.044 2.678a13.8 13.8 0 0 1 2.64 3.514c.792 1.521 1.298 3.212 1.405 4.929 0 .133.018.258.018.391a15.2 15.2 0 0 0 .755-3.212c.32-2.669-.106-5.507-1.297-7.9-1.423-2.847-3.947-5.089-6.73-6.735a23 23 0 0 0-5.485-2.357c.534.436 1.058.898 1.556 1.379a29 29 0 0 1 2.96 3.282 17.6 17.6 0 0 0-6.57-.097c-1.341.231-2.586.605-3.813 1.2a13.55 13.55 0 0 0-6.374 6.522 8.78 8.78 0 0 0 3.725 10.89c1.511.88 3.111 1.468 4.774 1.957 1.671.49 3.245 1.103 4.729 2.055a5.13 5.13 0 0 1 2 5.65 5.6 5.6 0 0 1-4.453 3.754 13.4 13.4 0 0 1-12.455-5.471 16 16 0 0 1-2.667-13.088c.472 1.032.934 2.073 1.405 3.105.195-4.021.4-8.033.596-12.055-1.912 3.568-3.814 7.144-5.725 10.712.889-.64 1.786-1.272 2.675-1.913-.986 2.144-1.582 4.44-1.902 6.824-.329 2.509-.338 5.116.525 7.42 1.03 2.731 3.289 5.027 5.867 6.575 3.173 1.904 6.836 2.686 10.543 2.464 3.342-.205 6.711-1.228 9.174-3.31 1.786-1.503 3.093-3.567 3.902-5.907.622-1.788.951-3.728.658-5.48a.8.8 0 0 1 .187-.098.9.9 0 0 1 .31-.09c.134-.017.303-.035 1.69-.08l-2.294 10.5c-.08.383-.16.56-.23.703a1.3 1.3 0 0 1-.214.311 1 1 0 0 1-.267.187 2 2 0 0 1-.444.16 4 4 0 0 1-1.023.125h-.142c-.044.213-.089.418-.142.631h7.165c.044-.213.089-.418.142-.631h-.107a2.8 2.8 0 0 1-.79-.143 1.8 1.8 0 0 1-.49-.222.63.63 0 0 1-.24-.294.85.85 0 0 1-.062-.409c.009-.16.053-.338.142-.765.738-3.39 1.485-6.788 2.223-10.178 1.404 0 1.609 0 1.795.044.196.045.365.143.498.24.134.099.214.214.303.365.08.152.16.356.248.588.09.231.187.489.285.854.089.32.178.72.204.978h.631c.232-1.04.454-2.081.685-3.122.284.035.64.124.907.213.258.098.418.196.524.303a.6.6 0 0 1 .17.382c.017.16.008.347-.134 1.023-.631 2.883-1.263 5.765-1.885 8.648-.08.383-.16.56-.231.703a1.3 1.3 0 0 1-.213.311c-.08.08-.17.134-.267.187a2 2 0 0 1-.444.16 4 4 0 0 1-1.023.125h-.222l-.133.631h12.658c.045-.213.09-.418.134-.631-.374 0-.703-.125-.934-.223a2 2 0 0 1-.47-.258 1 1 0 0 1-.232-.293 1.1 1.1 0 0 1-.107-.374c-.017-.151-.017-.33-.017-.507 0-.178 0-.356.062-.65.56-2.57 1.12-5.142 1.68-7.704L63.098 59.2c-.658.151-1.307.33-1.965.507-2.48.703-4.916 1.575-7.254 2.652a50 50 0 0 0-1.955.96c.409-1.05.827-2.108 1.235-3.158-2.978 2.732-5.965 5.463-8.942 8.194 3.884-1.174 7.769-2.358 11.654-3.532-1.165-.178-2.33-.365-3.494-.543a56 56 0 0 1 1.982-.89 49 49 0 0 1 5.44-1.876c2.063-.597 4.17-1.086 6.295-1.344a28.5 28.5 0 0 1 5.778-.089c1.885.17 3.787.525 5.44 1.397 1.05.552 2 1.317 3.05 1.877 1.36.73 2.88 1.139 4.47 1.201 1.325.045 2.703-.151 3.788-.827.986-.614 1.733-1.61 2.275-2.678.543-1.068.88-2.207.827-3.416-.044-1.024-.364-2.1-1.049-2.839-.498-.533-1.182-.89-1.849-1.183-1.049-.471-2.044-.792-3.102-1.183-.57-.214-1.156-.436-1.565-.863-.373-.383-.595-.925-.649-1.486-.053-.534.063-1.085.347-1.495.409-.596 1.2-.907 1.974-1.032a4.73 4.73 0 0 1 2.818.4c.506.25.968.588 1.395.97a8.5 8.5 0 0 1 1.422 1.629c.507.765.89 1.637 1.058 2.535.036.178.054.356.071.534a10 10 0 0 0 .285-2.349c0-1.04-.16-2.09-.56-3.042zm-35.531.766c-.463 2.108-.925 4.208-1.378 6.316-.267 1.21-.498 1.833-.685 2.251s-.338.632-.516.8a1.9 1.9 0 0 1-.648.392 4.6 4.6 0 0 1-.907.232 3 3 0 0 1-.702-.09 4 4 0 0 1-.57-.15 1.3 1.3 0 0 1-.4-.232.47.47 0 0 1-.15-.285c-.027-.124-.054-.284.017-.622.711-3.239 1.414-6.468 2.116-9.707.089-.382.258-.596.622-.756a2.74 2.74 0 0 1 2.4.08c.64.338.97 1.068.818 1.77zm8.969 9.67c-.196.027-.391.063-.587.098l1.2-5.498a7.5 7.5 0 0 0 .072 2.553c.124.632.328 1.255.666 1.798.178.293.4.56.64.8a36 36 0 0 0-1.982.24zm8.88-4.368c.223.08.4.17.534.24.133.08.204.151.258.232.053.089.08.186.098.355.017.16.017.392-.063.766l-.48 2.18a.54.54 0 0 1-.63.426 19 19 0 0 0-3.69-.249 4.5 4.5 0 0 1-.489-.907c-.231-.605-.293-1.272-.32-1.922-.044-1.352.071-2.696.409-4.004.311-1.183.809-2.34 1.609-3.273.462-.543 1.022-1.006 1.68-1.273a3.3 3.3 0 0 1 1.876-.169c.409.09.8.267 1.138.516.382.285.693.668.933 1.086.507.854.773 1.85.773 2.82h.792l.96-4.76c.213.08.426.143.649.187.649.142 1.324.142 1.982.053-.471.25-.907.552-1.298.908-.818.747-1.44 1.726-1.724 2.802-.24.926-.232 1.922.106 2.82.045.116.09.223.142.339h-5.947c-.044.222-.097.444-.142.667.4.009.64.08.845.16m10.597 2.429c.578.231 1.156.49 1.6.925.427.41.738.961.818 1.548.089.65-.124 1.344-.516 1.877a2.9 2.9 0 0 1-1.253.97c-.489.187-1.014.24-1.547.223a6 6 0 0 1-2.044-.41c-.472-.187-.925-.445-1.36-.711-.72-.436-1.405-.917-2.152-1.3a10 10 0 0 0-.995-.444l.853-3.915c.089-.418.195-.605.284-.738a.8.8 0 0 1 .276-.276 1.5 1.5 0 0 1 .409-.17c.133-.044.249-.061.489-.088.062 0 .142-.018.213-.027l-.035-.044c.195.267.426.507.684.712.534.427 1.174.702 1.814.952.817.32 1.635.596 2.453.925z"/><path fill="#fff" d="M75.357 42.349a15 15 0 0 1 1.769.142c.489.071.969.17 1.449.285.373.089.746.195 1.11.32.383.125.756.267 1.148.454.382.187.773.41 1.11.64.267.178.499.356.73.552.23.205.462.418.675.658.151.16.294.338.427.57a9 9 0 0 0-.836-.72c-.675-.517-1.44-.935-2.169-1.264-.986-.454-1.893-.765-2.987-1.094a17 17 0 0 0-2.418-.543zM45.106 67.9l3.502-3.203-1.449 1.984 3.307-.4zM9.885 34.875l2.045-3.852-.151 5.374-.4-3.319z"/><path fill="#231815" d="M20.775 69.715c.987-2.082 1.049-2.144 1.227-2.322.542-.516 1.084-1.032 1.626-1.557a.19.19 0 0 0-.133-.329h-5.254a.185.185 0 0 0-.186.214l.124 1.023s-.009.044-.027.08c-.062.196-.444 1.05-.853 1.904-.987 2.082-1.049 2.144-1.227 2.313l-.07.071c.044-.276.106-.623.141-.792.223-1.04.445-2.09.667-3.131v-.018l.48-1.397a.188.188 0 0 0-.178-.25h-6.4c-.178 0-.258.232-.116.339l1.111.836c.08.063.098.187.036.267l-1.956 2.536c-.889 1.148-1.11 1.388-1.395 1.583l-2.338 1.62c-.151.106-.08.347.106.347h13.663a.185.185 0 0 0 .187-.214l-.142-1.139s.009-.044.027-.08c.062-.195.444-1.05.853-1.904z"/><path fill="#231815" d="M42.332 65.525H29.184a.185.185 0 0 0-.186.213c.009.08.026.16.035.25a7.1 7.1 0 0 0-2.658-.454c-.684.018-1.84.044-3.031.774-.249.151-1.636 1.192-2.258 3.078-.204.614-.4 1.717.204 2.553 0 0 .774 1.068 2.685 1.122h.631c.196 0 .374-.01.507-.018.062-.018.124-.027.187-.045.026.018.044.063.088.063h13.219a.185.185 0 0 0 .187-.214c-.044-.383-.098-.756-.142-1.139q0-.026.026-.08c.063-.196.445-1.05.854-1.904.987-2.082 1.049-2.144 1.227-2.322l1.697-1.548c.125-.116.045-.33-.124-.33M29.131 66.69h-.009s0-.017.009-.026zm-4.33 3.355v-.018c.428-1.3 1.059-1.646 1.325-1.646h.063a.19.19 0 0 1 .177.133c.063.214.125.418.187.632-.453.267-.925.525-1.44.756q-.162.068-.311.134zm10.046 1.005-.507.471a36 36 0 0 1 .818-1.815c.818-1.734 1.005-2.073 1.147-2.233.035-.035.062-.07.08-.089.169-.16.338-.329.516-.489-.098.267-.445 1.032-.827 1.833-.987 2.082-1.05 2.144-1.227 2.313z"/><path fill="#FFF100" d="M20.25 69.35c1.023-2.17 1.094-2.233 1.334-2.473l.835-.738c.098-.09.036-.258-.097-.258h-3.6c-.09 0-.16.08-.143.169.018.178.045.356.062.525 0 .035.01.08-.053.267-.08.249-.516 1.192-.88 1.957-1.022 2.17-1.093 2.233-1.333 2.473l-.685.659c-.08-.143-.169-.276-.249-.418-.062-.116-.062-.339.151-1.433l.738-3.354v-.018l.213-.632c.036-.097-.035-.195-.142-.195h-4.338a.148.148 0 0 0-.089.267l.436.329c.062.053.08.142.027.204l-2.294 2.98c-.933 1.21-1.173 1.46-1.502 1.691-.347.24-.694.49-1.04.73-.116.08-.063.267.08.267h11.565c.089 0 .16-.08.142-.17l-.08-.604c0-.045-.009-.08.053-.267.08-.25.516-1.192.88-1.958zm-7.645 1.647s-.097.186-.097.195c-.045.08-.258.285-.756.694-.107-.107-.222-.213-.329-.32a.14.14 0 0 1-.027-.178c.08-.134.223-.356.507-.747a.15.15 0 0 1 .116-.063h.506c.098 0 .17.09.143.187-.027.098-.045.17-.063.231m14.233-1.583c-.632.374-1.69.952-2.25 1.014-.088.009-.31.036-.4-.089-.017-.018-.08-.142.08-.614.64-1.94 1.698-2.002 1.814-2.002.578 0 .604.09.693.374l.24.996a.147.147 0 0 0 .276.027c.436-.88.871-1.77 1.307-2.651.035-.08 0-.17-.08-.205a6.2 6.2 0 0 0-2.036-.391c-.56-.009-1.6-.036-2.685.56-.169.09-1.653 1.077-2.275 2.936-.178.543-.338 1.415.133 2.091.533.756 1.609.828 2.213.863a4.6 4.6 0 0 0 1.84-.267h.01l.133-.062s.053-.036.07-.071c.374-.774.748-1.557 1.13-2.331.062-.134-.08-.267-.205-.196zm6.925 1.895c.08-.25.515-1.192.88-1.958 1.022-2.17 1.093-2.233 1.333-2.464.258-.249.516-.498.782-.738.098-.09.036-.258-.098-.258h-6.987c-.089 0-.16.08-.142.169.027.178.045.347.071.525 0 .035.009.08-.053.266-.08.25-.516 1.193-.88 1.958-1.023 2.17-1.094 2.233-1.334 2.473l-.862.819c-.098.089-.035.258.098.258h7.076c.089 0 .16-.08.142-.17-.026-.204-.053-.4-.08-.604 0-.045-.009-.08.053-.267zm-3.005-.036-.471.454-.018-.151s-.009-.08.053-.267c.053-.16.25-.605.525-1.192a.16.16 0 0 1 .133-.09h.302c.107 0 .178.116.134.214-.392.783-.48.872-.65 1.032zm2.222-4.422c-.053.17-.275.65-.48 1.095a.16.16 0 0 1-.133.089h-.294c-.106 0-.177-.116-.133-.214.347-.685.427-.765.596-.925l.47-.454.019.151s.008.08-.054.267zm8.116-.97h-3.618c-.089 0-.16.08-.142.17.027.178.053.356.071.525 0 .035.01.08-.053.267-.08.249-.516 1.192-.88 1.957-1.022 2.17-1.094 2.233-1.334 2.473l-.862.819c-.098.089-.035.258.098.258h3.645c.088 0 .16-.08.142-.17-.027-.204-.054-.4-.08-.604 0-.045-.01-.08.053-.267.08-.25.516-1.192.88-1.958 1.023-2.17 1.094-2.233 1.334-2.473.275-.249.56-.49.835-.738.098-.09.036-.258-.098-.258z"/><path fill="#E60012" d="M13.841 71.762c-.925 0-1.28.017-1.28.017a.98.98 0 0 0 .533-.622c.054-.178.125-.436.223-.952l.026-.134H11.69l-.107.142c-.391.525-.667.926-.738 1.148-.08.24 0 .356.054.418 0 0-.57-.017-1.005-.017-.462 0-.969.017-.969.017.4-.275.676-.578 1.618-1.797l2.391-3.105a6 6 0 0 0 .205-.32l-.16-.214c.969 0 1.947 0 2.916.01-.054.08-.125.186-.17.329q-.04.12-.053.213l-.595 3.087c-.25 1.281-.25 1.522-.09 1.788 0 0-.355-.017-1.155-.017zm.053-4.395c.072-.374.143-.543.143-.561-.018.027-.116.187-.383.56l-1.35 1.86h1.208zm7.343-.854c-.311.293-.382.364-1.449 2.624-.276.578-.8 1.69-.907 2.02-.08.23-.088.356-.07.498l.017.124s-.311-.017-1.12-.017-1.12.017-1.12.017l.133-.124c.311-.294.383-.365 1.45-2.625.275-.578.8-1.69.906-2.02.08-.23.089-.355.071-.498l-.018-.124s.311.018 1.12.018 1.12-.018 1.12-.018zm6.347.729c-.204.427-.329.712-.329.712-.142-.472-.329-.739-1.182-.739-.382 0-1.591.223-2.294 2.35-.168.515-.364 1.378.81 1.378.613 0 1.03-.276 1.609-.747 0 0-.152.258-.4.783a8 8 0 0 0-.294.622s-.489.223-1.591.223c-1.911 0-2.356-.925-1.911-2.278.515-1.548 1.769-3.23 4.32-3.23 1.102 0 1.609.232 1.609.232s-.098.16-.347.685zm8.036-.729c-.31.293-.382.364-1.449 2.624-.275.578-.8 1.69-.906 2.02-.08.23-.09.356-.072.498l.018.124s-.31-.017-1.12-.017c-.809 0-1.12.017-1.12.017l.134-.124c.284-.276.364-.347 1.217-2.127h-1.769c-.275.588-.64 1.37-.729 1.629-.08.23-.089.356-.07.498l.017.124s-.311-.017-1.12-.017-1.12.017-1.12.017l.133-.124c.311-.294.383-.365 1.45-2.625.275-.578.8-1.69.906-2.02.08-.23.089-.355.071-.498l-.018-.124s.311.018 1.12.018 1.12-.018 1.12-.018l-.133.124c-.284.276-.364.347-1.164 2.029h1.769c.266-.578.586-1.272.675-1.53.08-.232.09-.356.071-.498l-.017-.125a23 23 0 0 0 1.12.018c.809 0 1.12-.018 1.12-.018zm4.383 0c-.311.293-.382.364-1.45 2.624-.275.578-.8 1.69-.906 2.02-.08.23-.089.356-.07.498l.017.124s-.311-.017-1.12-.017-1.12.017-1.12.017l.133-.124c.311-.294.382-.365 1.449-2.625.276-.578.8-1.69.907-2.02.08-.23.089-.355.07-.498l-.017-.124s.311.018 1.12.018 1.12-.018 1.12-.018z"/><path fill="#231815" d="M40.527 5.41h-6.756c-.008.791-.115 1.592-.213 2.401h.453c.223-.854.49-1.005 1.432-1.005h.462v5.383c0 .551-.33.614-.676.614v.471c.623-.036 1.236-.071 1.867-.071s1.28.035 1.92.071v-.471c-.409 0-.711-.125-.711-.614V6.806h.507c.88 0 1.235.214 1.404 1.005h.436a36 36 0 0 1-.142-2.402zm-22.926 0h-6.756c-.009.791-.115 1.592-.213 2.401h.453c.222-.854.49-1.005 1.431-1.005h.463v5.383c0 .551-.33.614-.676.614v.471c.622-.036 1.236-.071 1.867-.071s1.28.035 1.92.071v-.471c-.409 0-.711-.125-.711-.614V6.806h.507c.88 0 1.235.214 1.404 1.005h.436c-.08-.791-.107-1.601-.142-2.402zM5.485 15.045l-.098-.17c1.591-.533 1.76-1.467 1.76-2.242V6.717c0-.774-.347-.907-.711-.907v-.472c.533.036 1.209.071 1.911.071.703 0 1.227-.035 1.787-.07v.47c-.267 0-.551.054-.551.517v5.347c0 2.18-1.716 3.167-4 3.63 0 0-.045-.152-.098-.259m19.21-4.199c-.044.845-.48 1.103-1.173 1.103h-2.125V6.584h2.143c.648 0 .915.489.942.943h.355c-.017-.525-.053-1.068-.088-1.673V5.4H18.41v.472c.25 0 .551.044.551.516v5.827c0 .472-.302.516-.55.516v.472h6.515c.036-.783.116-1.575.17-2.367h-.4z"/><path fill="#E60012" d="M25.673 9.173s-2.133.747-4.765.747-4.765-.747-4.765-.747 2.134-.748 4.765-.748 4.765.748 4.765.748"/><path fill="#231815" d="M32.882 12.029c-.577-1.166-1.244-2.536-1.76-3.56l1.431-2.179c.33-.41.507-.49.898-.49v-.47a15 15 0 0 1-1.43.07 33 33 0 0 1-1.877-.07v.47c.223 0 .445.099.445.357s-.089.613-1.92 2.891h-.027V6.317c0-.463.276-.516.542-.516v-.472c-.55.054-1.102.071-1.769.071-.595 0-1.19-.035-1.724-.07v.47c.24 0 .542.054.542.517v5.978c0 .463-.302.516-.542.516v.472a26 26 0 0 1 1.724-.071c.667 0 1.218.035 1.77.07v-.47c-.267 0-.543-.054-.543-.517V9.128h.027a43 43 0 0 1 2 4.155 16 16 0 0 1 1.689-.071c.489 0 .898.026 1.511.07v-.47c-.444 0-.773-.348-.987-.784"/><path fill="#181818" d="M111.83 13.14h5.147c3.663 0 5.21 1.655 5.21 5.25v.96c0 2.474-.827 3.995-2.578 4.627v.062c2.08.596 2.933 2.278 2.933 4.858v1.984c0 3.567-1.715 5.382-5.316 5.382h-5.413V13.141zm4.756 9.876c2.009 0 3.032-.863 3.032-3.167v-1.192c0-2.242-.792-3.168-2.703-3.168h-2.507v7.527zm.658 10.899c1.885 0 2.738-.89 2.738-3.105v-1.984c0-2.545-.924-3.47-3.262-3.47h-2.312v8.55h2.836zm7.85-20.775h9.467v2.35h-6.898v7.526h5.609v2.349h-5.609v8.55h6.898v2.348h-9.467zm11.743 0h9.467v2.35h-6.898v7.526h5.609v2.349h-5.609v8.55h6.898v2.348h-9.467zM153.7 30.872V18.488c0-3.666 1.885-5.677 5.28-5.677s5.316 2.011 5.316 5.677v12.384c0 3.665-1.884 5.712-5.316 5.712s-5.28-2.047-5.28-5.712m8.018.169V18.327c0-2.18-.986-3.167-2.738-3.167-1.751 0-2.702.988-2.702 3.167v12.714c0 2.215.987 3.203 2.702 3.203 1.716 0 2.738-.988 2.738-3.203m5.441-17.901h3.298l5.209 16.513V13.141h2.347v23.113h-2.676l-5.84-18.79v18.79h-2.347V13.141zm14.019 0h9.467v2.35h-6.898v7.526h5.609v2.349h-5.609v8.55h6.898v2.348h-9.467zm12.801 23.114h-.925v-3.336h2.605v3.07l-1.618 3.834h-1.191l1.12-3.568zM111.83 66.788V64.44a4.4 4.4 0 0 0 1.352.196c1.777 0 2.604-.89 2.604-2.909V43.728h2.569v17.927c0 3.603-1.546 5.32-4.853 5.32-.658 0-1.192-.035-1.681-.196zm9.441-5.32V43.737h2.578v17.927c0 2.18.96 3.167 2.676 3.167 1.715 0 2.676-.988 2.676-3.167V43.737h2.506v17.731c0 3.665-1.813 5.712-5.209 5.712s-5.209-2.047-5.209-5.712zm12.765.107v-1.29h2.445v1.486c0 2.081 1.022 3.069 2.676 3.069 1.653 0 2.702-.988 2.702-3.105s-.889-3.497-3.564-5.712c-3.201-2.642-4.259-4.493-4.259-7.1 0-3.47 1.849-5.516 5.183-5.516s5.085 2.047 5.085 5.579v.925h-2.445v-1.085c0-2.082-.96-3.07-2.64-3.07s-2.64.988-2.64 3.007.924 3.239 3.662 5.48c3.165 2.643 4.187 4.494 4.187 7.296 0 3.603-1.884 5.65-5.245 5.65-3.36 0-5.147-2.047-5.147-5.614m15.904-15.49h-4.089v-2.348h10.756v2.348h-4.089V66.86h-2.578zm14.152-2.348h5.147c3.662 0 5.209 1.654 5.209 5.249v.96c0 2.474-.826 3.995-2.569 4.627v.062c2.08.596 2.934 2.278 2.934 4.858v1.984c0 3.568-1.716 5.382-5.316 5.382h-5.414V43.746zm4.747 9.875c2.009 0 3.031-.863 3.031-3.167v-1.192c0-2.242-.791-3.168-2.702-3.168h-2.507v7.527zm.667 10.899c1.884 0 2.738-.89 2.738-3.105v-1.984c0-2.545-.925-3.47-3.263-3.47h-2.311v8.55h2.836zm7.716-3.043V43.737h2.578v17.927c0 2.18.96 3.167 2.676 3.167 1.715 0 2.675-.988 2.675-3.167V43.737h2.507v17.731c0 3.665-1.813 5.712-5.209 5.712s-5.209-2.047-5.209-5.712zm12.534 3.078 7.485-18.46h-7.156v-2.35h9.93v2.278l-7.485 18.488h7.485v2.349h-10.259v-2.314zm11.716 0 7.485-18.46h-7.156v-2.35h9.93v2.278l-7.485 18.488h7.485v2.349h-10.259v-2.314zm12.597-20.809h2.578V66.85h-2.578zm5.707 0h3.298l5.209 16.512V43.737h2.347V66.85h-2.676l-5.84-18.79v18.79h-2.338zm13.761 17.731V49.084c0-3.666 1.813-5.677 5.209-5.677s5.245 2.011 5.245 5.677v1.886h-2.445v-2.047c0-2.18-.986-3.167-2.737-3.167s-2.703.988-2.703 3.167v12.75c0 2.215.987 3.167 2.703 3.167s2.737-.961 2.737-3.167v-5.187h-2.542v-2.349h4.978v7.331c0 3.665-1.813 5.712-5.245 5.712-3.431 0-5.209-2.047-5.209-5.712z"/></g><defs><clipPath id="a"><path fill="#fff" d="M0 0h244v80H0z"/></clipPath></defs></svg>